solid OpenSCAD_Model
  facet normal 1 -0 0
    outer loop
      vertex 33 -12 9.2
      vertex 33 12 0
      vertex 33 12 9.2
    endloop
  endfacet
  facet normal 1 0 0
    outer loop
      vertex 33 12 0
      vertex 33 -12 9.2
      vertex 33 -12 0
    endloop
  endfacet
  facet normal -0 0 1
    outer loop
      vertex -31.6 12 1.2
      vertex 31.6 -12 1.2
      vertex 31.6 12 1.2
    endloop
  endfacet
  facet normal 0 0 1
    outer loop
      vertex 31.6 -12 1.2
      vertex -31.6 12 1.2
      vertex -31.6 -12 1.2
    endloop
  endfacet
  facet normal 0 0 -1
    outer loop
      vertex -33 -12 0
      vertex 33 12 0
      vertex 33 -12 0
    endloop
  endfacet
  facet normal -0 0 -1
    outer loop
      vertex 33 12 0
      vertex -33 -12 0
      vertex -33 12 0
    endloop
  endfacet
  facet normal -1 0 0
    outer loop
      vertex -33 -12 0
      vertex -33 12 9.2
      vertex -33 12 0
    endloop
  endfacet
  facet normal -1 -0 0
    outer loop
      vertex -33 12 9.2
      vertex -33 -12 0
      vertex -33 -12 9.2
    endloop
  endfacet
  facet normal 0 1 0
    outer loop
      vertex 33 12 9.2
      vertex 31.6 12 1.2
      vertex 31.6 12 9.2
    endloop
  endfacet
  facet normal 0 1 0
    outer loop
      vertex 31.6 12 1.2
      vertex 33 12 0
      vertex -31.6 12 1.2
    endloop
  endfacet
  facet normal 0 1 -0
    outer loop
      vertex 33 12 0
      vertex 31.6 12 1.2
      vertex 33 12 9.2
    endloop
  endfacet
  facet normal 0 1 -0
    outer loop
      vertex -31.6 12 1.2
      vertex -33 12 9.2
      vertex -31.6 12 9.2
    endloop
  endfacet
  facet normal 0 1 0
    outer loop
      vertex -31.6 12 1.2
      vertex -33 12 0
      vertex -33 12 9.2
    endloop
  endfacet
  facet normal 0 1 0
    outer loop
      vertex -33 12 0
      vertex -31.6 12 1.2
      vertex 33 12 0
    endloop
  endfacet
  facet normal 0 -1 0
    outer loop
      vertex -33 -12 9.2
      vertex -31.6 -12 1.2
      vertex -31.6 -12 9.2
    endloop
  endfacet
  facet normal 0 -1 -0
    outer loop
      vertex -31.6 -12 1.2
      vertex -33 -12 0
      vertex 31.6 -12 1.2
    endloop
  endfacet
  facet normal 0 -1 0
    outer loop
      vertex -33 -12 0
      vertex -31.6 -12 1.2
      vertex -33 -12 9.2
    endloop
  endfacet
  facet normal 0 -1 0
    outer loop
      vertex 31.6 -12 1.2
      vertex 33 -12 9.2
      vertex 31.6 -12 9.2
    endloop
  endfacet
  facet normal 0 -1 0
    outer loop
      vertex 31.6 -12 1.2
      vertex 33 -12 0
      vertex 33 -12 9.2
    endloop
  endfacet
  facet normal 0 -1 0
    outer loop
      vertex 33 -12 0
      vertex 31.6 -12 1.2
      vertex -33 -12 0
    endloop
  endfacet
  facet normal 1 -0 0
    outer loop
      vertex -31.6 -12 9.2
      vertex -31.6 12 1.2
      vertex -31.6 12 9.2
    endloop
  endfacet
  facet normal 1 0 0
    outer loop
      vertex -31.6 12 1.2
      vertex -31.6 -12 9.2
      vertex -31.6 -12 1.2
    endloop
  endfacet
  facet normal -0 0 1
    outer loop
      vertex -33 12 9.2
      vertex -31.6 -12 9.2
      vertex -31.6 12 9.2
    endloop
  endfacet
  facet normal 0 0 1
    outer loop
      vertex -31.6 -12 9.2
      vertex -33 12 9.2
      vertex -33 -12 9.2
    endloop
  endfacet
  facet normal -0 0 1
    outer loop
      vertex 31.6 12 9.2
      vertex 33 -12 9.2
      vertex 33 12 9.2
    endloop
  endfacet
  facet normal 0 0 1
    outer loop
      vertex 33 -12 9.2
      vertex 31.6 12 9.2
      vertex 31.6 -12 9.2
    endloop
  endfacet
  facet normal -1 0 0
    outer loop
      vertex 31.6 -12 1.2
      vertex 31.6 12 9.2
      vertex 31.6 12 1.2
    endloop
  endfacet
  facet normal -1 -0 0
    outer loop
      vertex 31.6 12 9.2
      vertex 31.6 -12 1.2
      vertex 31.6 -12 9.2
    endloop
  endfacet
endsolid OpenSCAD_Model
