solid OpenSCAD_Model
  facet normal -0.980746 -0.195286 0
    outer loop
      vertex -13.9094 0.143579 0
      vertex -13.9375 0.2847 1.6
      vertex -13.9375 0.2847 0
    endloop
  endfacet
  facet normal -0.980746 -0.195286 0
    outer loop
      vertex -13.9375 0.2847 1.6
      vertex -13.9094 0.143579 0
      vertex -13.9094 0.143579 1.6
    endloop
  endfacet
  facet normal -0.997864 -0.0653293 0
    outer loop
      vertex -13.9 0 0
      vertex -13.9094 0.143579 1.6
      vertex -13.9094 0.143579 0
    endloop
  endfacet
  facet normal -0.997864 -0.0653293 0
    outer loop
      vertex -13.9094 0.143579 1.6
      vertex -13.9 0 0
      vertex -13.9 0 1.6
    endloop
  endfacet
  facet normal -0.442441 0.896798 0
    outer loop
      vertex -14.45 -0.952627 0
      vertex -14.579 -1.01627 1.6
      vertex -14.45 -0.952627 1.6
    endloop
  endfacet
  facet normal -0.442441 0.896798 0
    outer loop
      vertex -14.579 -1.01627 1.6
      vertex -14.45 -0.952627 0
      vertex -14.579 -1.01627 0
    endloop
  endfacet
  facet normal -0.065389 0.99786 0
    outer loop
      vertex -14.8564 -1.09059 0
      vertex -15 -1.1 1.6
      vertex -14.8564 -1.09059 1.6
    endloop
  endfacet
  facet normal -0.065389 0.99786 0
    outer loop
      vertex -15 -1.1 1.6
      vertex -14.8564 -1.09059 0
      vertex -15 -1.1 0
    endloop
  endfacet
  facet normal -0.997864 0.0653293 0
    outer loop
      vertex -13.9094 -0.143579 0
      vertex -13.9 0 1.6
      vertex -13.9 0 0
    endloop
  endfacet
  facet normal -0.997864 0.0653293 0
    outer loop
      vertex -13.9 0 1.6
      vertex -13.9094 -0.143579 0
      vertex -13.9094 -0.143579 1.6
    endloop
  endfacet
  facet normal -0.896706 -0.442627 0
    outer loop
      vertex -13.9837 0.420951 0
      vertex -14.0474 0.549999 1.6
      vertex -14.0474 0.549999 0
    endloop
  endfacet
  facet normal -0.896706 -0.442627 0
    outer loop
      vertex -14.0474 0.549999 1.6
      vertex -13.9837 0.420951 0
      vertex -13.9837 0.420951 1.6
    endloop
  endfacet
  facet normal 0.947038 0.321122 0
    outer loop
      vertex -16.0163 -0.420951 1.6
      vertex -16.0625 -0.2847 0
      vertex -16.0625 -0.2847 1.6
    endloop
  endfacet
  facet normal 0.947038 0.321122 0
    outer loop
      vertex -16.0625 -0.2847 0
      vertex -16.0163 -0.420951 1.6
      vertex -16.0163 -0.420951 0
    endloop
  endfacet
  facet normal -0.32133 0.946967 0
    outer loop
      vertex -14.579 -1.01627 0
      vertex -14.7153 -1.06252 1.6
      vertex -14.579 -1.01627 1.6
    endloop
  endfacet
  facet normal -0.32133 0.946967 0
    outer loop
      vertex -14.7153 -1.06252 1.6
      vertex -14.579 -1.01627 0
      vertex -14.7153 -1.06252 0
    endloop
  endfacet
  facet normal 0.896706 0.442627 0
    outer loop
      vertex -15.9526 -0.549999 1.6
      vertex -16.0163 -0.420951 0
      vertex -16.0163 -0.420951 1.6
    endloop
  endfacet
  facet normal 0.896706 0.442627 0
    outer loop
      vertex -16.0163 -0.420951 0
      vertex -15.9526 -0.549999 1.6
      vertex -15.9526 -0.549999 0
    endloop
  endfacet
  facet normal 0.980746 -0.195286 0
    outer loop
      vertex -16.0906 0.143579 1.6
      vertex -16.0625 0.2847 0
      vertex -16.0625 0.2847 1.6
    endloop
  endfacet
  facet normal 0.980746 -0.195286 0
    outer loop
      vertex -16.0625 0.2847 0
      vertex -16.0906 0.143579 1.6
      vertex -16.0906 0.143579 0
    endloop
  endfacet
  facet normal -0.831597 -0.55538 0
    outer loop
      vertex -14.0474 0.549999 0
      vertex -14.1273 0.669637 1.6
      vertex -14.1273 0.669637 0
    endloop
  endfacet
  facet normal -0.831597 -0.55538 0
    outer loop
      vertex -14.1273 0.669637 1.6
      vertex -14.0474 0.549999 0
      vertex -14.0474 0.549999 1.6
    endloop
  endfacet
  facet normal -0.55569 -0.83139 0
    outer loop
      vertex -14.45 0.952627 0
      vertex -14.3304 0.872688 1.6
      vertex -14.45 0.952627 1.6
    endloop
  endfacet
  facet normal -0.55569 -0.83139 -0
    outer loop
      vertex -14.3304 0.872688 1.6
      vertex -14.45 0.952627 0
      vertex -14.3304 0.872688 0
    endloop
  endfacet
  facet normal -0.065389 -0.99786 0
    outer loop
      vertex -15 1.1 0
      vertex -14.8564 1.09059 1.6
      vertex -15 1.1 1.6
    endloop
  endfacet
  facet normal -0.065389 -0.99786 -0
    outer loop
      vertex -14.8564 1.09059 1.6
      vertex -15 1.1 0
      vertex -14.8564 1.09059 0
    endloop
  endfacet
  facet normal -0.32133 -0.946967 0
    outer loop
      vertex -14.7153 1.06252 0
      vertex -14.579 1.01627 1.6
      vertex -14.7153 1.06252 1.6
    endloop
  endfacet
  facet normal -0.32133 -0.946967 -0
    outer loop
      vertex -14.579 1.01627 1.6
      vertex -14.7153 1.06252 0
      vertex -14.579 1.01627 0
    endloop
  endfacet
  facet normal 0.32133 0.946967 -0
    outer loop
      vertex -15.2847 -1.06252 0
      vertex -15.421 -1.01627 1.6
      vertex -15.2847 -1.06252 1.6
    endloop
  endfacet
  facet normal 0.32133 0.946967 0
    outer loop
      vertex -15.421 -1.01627 1.6
      vertex -15.2847 -1.06252 0
      vertex -15.421 -1.01627 0
    endloop
  endfacet
  facet normal 0.997864 0.0653293 0
    outer loop
      vertex -16.0906 -0.143579 1.6
      vertex -16.1 0 0
      vertex -16.1 0 1.6
    endloop
  endfacet
  facet normal 0.997864 0.0653293 0
    outer loop
      vertex -16.1 0 0
      vertex -16.0906 -0.143579 1.6
      vertex -16.0906 -0.143579 0
    endloop
  endfacet
  facet normal -0.980746 0.195286 0
    outer loop
      vertex -13.9375 -0.2847 0
      vertex -13.9094 -0.143579 1.6
      vertex -13.9094 -0.143579 0
    endloop
  endfacet
  facet normal -0.980746 0.195286 0
    outer loop
      vertex -13.9094 -0.143579 1.6
      vertex -13.9375 -0.2847 0
      vertex -13.9375 -0.2847 1.6
    endloop
  endfacet
  facet normal 0.195113 0.980781 -0
    outer loop
      vertex -15.1436 -1.09059 0
      vertex -15.2847 -1.06252 1.6
      vertex -15.1436 -1.09059 1.6
    endloop
  endfacet
  facet normal 0.195113 0.980781 0
    outer loop
      vertex -15.2847 -1.06252 1.6
      vertex -15.1436 -1.09059 0
      vertex -15.2847 -1.06252 0
    endloop
  endfacet
  facet normal -0.195113 0.980781 0
    outer loop
      vertex -14.7153 -1.06252 0
      vertex -14.8564 -1.09059 1.6
      vertex -14.7153 -1.06252 1.6
    endloop
  endfacet
  facet normal -0.195113 0.980781 0
    outer loop
      vertex -14.8564 -1.09059 1.6
      vertex -14.7153 -1.06252 0
      vertex -14.8564 -1.09059 0
    endloop
  endfacet
  facet normal 0.980746 0.195286 0
    outer loop
      vertex -16.0625 -0.2847 1.6
      vertex -16.0906 -0.143579 0
      vertex -16.0906 -0.143579 1.6
    endloop
  endfacet
  facet normal 0.980746 0.195286 0
    outer loop
      vertex -16.0906 -0.143579 0
      vertex -16.0625 -0.2847 1.6
      vertex -16.0625 -0.2847 0
    endloop
  endfacet
  facet normal -0.831597 0.55538 0
    outer loop
      vertex -14.1273 -0.669637 0
      vertex -14.0474 -0.549999 1.6
      vertex -14.0474 -0.549999 0
    endloop
  endfacet
  facet normal -0.831597 0.55538 0
    outer loop
      vertex -14.0474 -0.549999 1.6
      vertex -14.1273 -0.669637 0
      vertex -14.1273 -0.669637 1.6
    endloop
  endfacet
  facet normal -0.442441 -0.896798 0
    outer loop
      vertex -14.579 1.01627 0
      vertex -14.45 0.952627 1.6
      vertex -14.579 1.01627 1.6
    endloop
  endfacet
  facet normal -0.442441 -0.896798 -0
    outer loop
      vertex -14.45 0.952627 1.6
      vertex -14.579 1.01627 0
      vertex -14.45 0.952627 0
    endloop
  endfacet
  facet normal 0.947038 -0.321122 0
    outer loop
      vertex -16.0625 0.2847 1.6
      vertex -16.0163 0.420951 0
      vertex -16.0163 0.420951 1.6
    endloop
  endfacet
  facet normal 0.947038 -0.321122 0
    outer loop
      vertex -16.0163 0.420951 0
      vertex -16.0625 0.2847 1.6
      vertex -16.0625 0.2847 0
    endloop
  endfacet
  facet normal -0.55569 0.83139 0
    outer loop
      vertex -14.3304 -0.872688 0
      vertex -14.45 -0.952627 1.6
      vertex -14.3304 -0.872688 1.6
    endloop
  endfacet
  facet normal -0.55569 0.83139 0
    outer loop
      vertex -14.45 -0.952627 1.6
      vertex -14.3304 -0.872688 0
      vertex -14.45 -0.952627 0
    endloop
  endfacet
  facet normal -0.947038 -0.321122 0
    outer loop
      vertex -13.9375 0.2847 0
      vertex -13.9837 0.420951 1.6
      vertex -13.9837 0.420951 0
    endloop
  endfacet
  facet normal -0.947038 -0.321122 0
    outer loop
      vertex -13.9837 0.420951 1.6
      vertex -13.9375 0.2847 0
      vertex -13.9375 0.2847 1.6
    endloop
  endfacet
  facet normal 0.195113 -0.980781 0
    outer loop
      vertex -15.2847 1.06252 0
      vertex -15.1436 1.09059 1.6
      vertex -15.2847 1.06252 1.6
    endloop
  endfacet
  facet normal 0.195113 -0.980781 0
    outer loop
      vertex -15.1436 1.09059 1.6
      vertex -15.2847 1.06252 0
      vertex -15.1436 1.09059 0
    endloop
  endfacet
  facet normal 0.065389 -0.99786 0
    outer loop
      vertex -15.1436 1.09059 0
      vertex -15 1.1 1.6
      vertex -15.1436 1.09059 1.6
    endloop
  endfacet
  facet normal 0.065389 -0.99786 0
    outer loop
      vertex -15 1.1 1.6
      vertex -15.1436 1.09059 0
      vertex -15 1.1 0
    endloop
  endfacet
  facet normal -0.195113 -0.980781 0
    outer loop
      vertex -14.8564 1.09059 0
      vertex -14.7153 1.06252 1.6
      vertex -14.8564 1.09059 1.6
    endloop
  endfacet
  facet normal -0.195113 -0.980781 -0
    outer loop
      vertex -14.7153 1.06252 1.6
      vertex -14.8564 1.09059 0
      vertex -14.7153 1.06252 0
    endloop
  endfacet
  facet normal 0.831597 0.55538 0
    outer loop
      vertex -15.8727 -0.669637 1.6
      vertex -15.9526 -0.549999 0
      vertex -15.9526 -0.549999 1.6
    endloop
  endfacet
  facet normal 0.831597 0.55538 0
    outer loop
      vertex -15.9526 -0.549999 0
      vertex -15.8727 -0.669637 1.6
      vertex -15.8727 -0.669637 0
    endloop
  endfacet
  facet normal 0.659276 -0.751901 0
    outer loop
      vertex -15.7778 0.777817 0
      vertex -15.6696 0.872688 1.6
      vertex -15.7778 0.777817 1.6
    endloop
  endfacet
  facet normal 0.659276 -0.751901 0
    outer loop
      vertex -15.6696 0.872688 1.6
      vertex -15.7778 0.777817 0
      vertex -15.6696 0.872688 0
    endloop
  endfacet
  facet normal 0.831597 -0.55538 0
    outer loop
      vertex -15.9526 0.549999 1.6
      vertex -15.8727 0.669637 0
      vertex -15.8727 0.669637 1.6
    endloop
  endfacet
  facet normal 0.831597 -0.55538 0
    outer loop
      vertex -15.8727 0.669637 0
      vertex -15.9526 0.549999 1.6
      vertex -15.9526 0.549999 0
    endloop
  endfacet
  facet normal 0.442441 -0.896798 0
    outer loop
      vertex -15.55 0.952627 0
      vertex -15.421 1.01627 1.6
      vertex -15.55 0.952627 1.6
    endloop
  endfacet
  facet normal 0.442441 -0.896798 0
    outer loop
      vertex -15.421 1.01627 1.6
      vertex -15.55 0.952627 0
      vertex -15.421 1.01627 0
    endloop
  endfacet
  facet normal 0.751741 -0.659458 0
    outer loop
      vertex -15.8727 0.669637 1.6
      vertex -15.7778 0.777817 0
      vertex -15.7778 0.777817 1.6
    endloop
  endfacet
  facet normal 0.751741 -0.659458 0
    outer loop
      vertex -15.7778 0.777817 0
      vertex -15.8727 0.669637 1.6
      vertex -15.8727 0.669637 0
    endloop
  endfacet
  facet normal 0.997864 -0.0653293 0
    outer loop
      vertex -16.1 0 1.6
      vertex -16.0906 0.143579 0
      vertex -16.0906 0.143579 1.6
    endloop
  endfacet
  facet normal 0.997864 -0.0653293 0
    outer loop
      vertex -16.0906 0.143579 0
      vertex -16.1 0 1.6
      vertex -16.1 0 0
    endloop
  endfacet
  facet normal 0.32133 -0.946967 0
    outer loop
      vertex -15.421 1.01627 0
      vertex -15.2847 1.06252 1.6
      vertex -15.421 1.01627 1.6
    endloop
  endfacet
  facet normal 0.32133 -0.946967 0
    outer loop
      vertex -15.2847 1.06252 1.6
      vertex -15.421 1.01627 0
      vertex -15.2847 1.06252 0
    endloop
  endfacet
  facet normal 0.751741 0.659458 0
    outer loop
      vertex -15.7778 -0.777817 1.6
      vertex -15.8727 -0.669637 0
      vertex -15.8727 -0.669637 1.6
    endloop
  endfacet
  facet normal 0.751741 0.659458 0
    outer loop
      vertex -15.8727 -0.669637 0
      vertex -15.7778 -0.777817 1.6
      vertex -15.7778 -0.777817 0
    endloop
  endfacet
  facet normal -0.659276 0.751901 0
    outer loop
      vertex -14.2222 -0.777817 0
      vertex -14.3304 -0.872688 1.6
      vertex -14.2222 -0.777817 1.6
    endloop
  endfacet
  facet normal -0.659276 0.751901 0
    outer loop
      vertex -14.3304 -0.872688 1.6
      vertex -14.2222 -0.777817 0
      vertex -14.3304 -0.872688 0
    endloop
  endfacet
  facet normal -0.947038 0.321122 0
    outer loop
      vertex -13.9837 -0.420951 0
      vertex -13.9375 -0.2847 1.6
      vertex -13.9375 -0.2847 0
    endloop
  endfacet
  facet normal -0.947038 0.321122 0
    outer loop
      vertex -13.9375 -0.2847 1.6
      vertex -13.9837 -0.420951 0
      vertex -13.9837 -0.420951 1.6
    endloop
  endfacet
  facet normal -0.659276 -0.751901 0
    outer loop
      vertex -14.3304 0.872688 0
      vertex -14.2222 0.777817 1.6
      vertex -14.3304 0.872688 1.6
    endloop
  endfacet
  facet normal -0.659276 -0.751901 -0
    outer loop
      vertex -14.2222 0.777817 1.6
      vertex -14.3304 0.872688 0
      vertex -14.2222 0.777817 0
    endloop
  endfacet
  facet normal 0.659276 0.751901 -0
    outer loop
      vertex -15.6696 -0.872688 0
      vertex -15.7778 -0.777817 1.6
      vertex -15.6696 -0.872688 1.6
    endloop
  endfacet
  facet normal 0.659276 0.751901 0
    outer loop
      vertex -15.7778 -0.777817 1.6
      vertex -15.6696 -0.872688 0
      vertex -15.7778 -0.777817 0
    endloop
  endfacet
  facet normal 0.55569 0.83139 -0
    outer loop
      vertex -15.55 -0.952627 0
      vertex -15.6696 -0.872688 1.6
      vertex -15.55 -0.952627 1.6
    endloop
  endfacet
  facet normal 0.55569 0.83139 0
    outer loop
      vertex -15.6696 -0.872688 1.6
      vertex -15.55 -0.952627 0
      vertex -15.6696 -0.872688 0
    endloop
  endfacet
  facet normal -0.751741 -0.659458 0
    outer loop
      vertex -14.1273 0.669637 0
      vertex -14.2222 0.777817 1.6
      vertex -14.2222 0.777817 0
    endloop
  endfacet
  facet normal -0.751741 -0.659458 0
    outer loop
      vertex -14.2222 0.777817 1.6
      vertex -14.1273 0.669637 0
      vertex -14.1273 0.669637 1.6
    endloop
  endfacet
  facet normal 0.065389 0.99786 -0
    outer loop
      vertex -15 -1.1 0
      vertex -15.1436 -1.09059 1.6
      vertex -15 -1.1 1.6
    endloop
  endfacet
  facet normal 0.065389 0.99786 0
    outer loop
      vertex -15.1436 -1.09059 1.6
      vertex -15 -1.1 0
      vertex -15.1436 -1.09059 0
    endloop
  endfacet
  facet normal 0.442441 0.896798 -0
    outer loop
      vertex -15.421 -1.01627 0
      vertex -15.55 -0.952627 1.6
      vertex -15.421 -1.01627 1.6
    endloop
  endfacet
  facet normal 0.442441 0.896798 0
    outer loop
      vertex -15.55 -0.952627 1.6
      vertex -15.421 -1.01627 0
      vertex -15.55 -0.952627 0
    endloop
  endfacet
  facet normal 0.55569 -0.83139 0
    outer loop
      vertex -15.6696 0.872688 0
      vertex -15.55 0.952627 1.6
      vertex -15.6696 0.872688 1.6
    endloop
  endfacet
  facet normal 0.55569 -0.83139 0
    outer loop
      vertex -15.55 0.952627 1.6
      vertex -15.6696 0.872688 0
      vertex -15.55 0.952627 0
    endloop
  endfacet
  facet normal -0.751741 0.659458 0
    outer loop
      vertex -14.2222 -0.777817 0
      vertex -14.1273 -0.669637 1.6
      vertex -14.1273 -0.669637 0
    endloop
  endfacet
  facet normal -0.751741 0.659458 0
    outer loop
      vertex -14.1273 -0.669637 1.6
      vertex -14.2222 -0.777817 0
      vertex -14.2222 -0.777817 1.6
    endloop
  endfacet
  facet normal -0.896706 0.442627 0
    outer loop
      vertex -14.0474 -0.549999 0
      vertex -13.9837 -0.420951 1.6
      vertex -13.9837 -0.420951 0
    endloop
  endfacet
  facet normal -0.896706 0.442627 0
    outer loop
      vertex -13.9837 -0.420951 1.6
      vertex -14.0474 -0.549999 0
      vertex -14.0474 -0.549999 1.6
    endloop
  endfacet
  facet normal 0.896706 -0.442627 0
    outer loop
      vertex -16.0163 0.420951 1.6
      vertex -15.9526 0.549999 0
      vertex -15.9526 0.549999 1.6
    endloop
  endfacet
  facet normal 0.896706 -0.442627 0
    outer loop
      vertex -15.9526 0.549999 0
      vertex -16.0163 0.420951 1.6
      vertex -16.0163 0.420951 0
    endloop
  endfacet
  facet normal -0.980746 -0.195286 0
    outer loop
      vertex 16.0906 0.143579 0
      vertex 16.0625 0.2847 1.6
      vertex 16.0625 0.2847 0
    endloop
  endfacet
  facet normal -0.980746 -0.195286 0
    outer loop
      vertex 16.0625 0.2847 1.6
      vertex 16.0906 0.143579 0
      vertex 16.0906 0.143579 1.6
    endloop
  endfacet
  facet normal -0.997864 -0.0653293 0
    outer loop
      vertex 16.1 0 0
      vertex 16.0906 0.143579 1.6
      vertex 16.0906 0.143579 0
    endloop
  endfacet
  facet normal -0.997864 -0.0653293 0
    outer loop
      vertex 16.0906 0.143579 1.6
      vertex 16.1 0 0
      vertex 16.1 0 1.6
    endloop
  endfacet
  facet normal -0.32133 -0.946967 0
    outer loop
      vertex 15.2847 1.06252 0
      vertex 15.421 1.01627 1.6
      vertex 15.2847 1.06252 1.6
    endloop
  endfacet
  facet normal -0.32133 -0.946967 -0
    outer loop
      vertex 15.421 1.01627 1.6
      vertex 15.2847 1.06252 0
      vertex 15.421 1.01627 0
    endloop
  endfacet
  facet normal -0.55569 0.83139 0
    outer loop
      vertex 15.6696 -0.872688 0
      vertex 15.55 -0.952627 1.6
      vertex 15.6696 -0.872688 1.6
    endloop
  endfacet
  facet normal -0.55569 0.83139 0
    outer loop
      vertex 15.55 -0.952627 1.6
      vertex 15.6696 -0.872688 0
      vertex 15.55 -0.952627 0
    endloop
  endfacet
  facet normal -0.659276 -0.751901 0
    outer loop
      vertex 15.6696 0.872688 0
      vertex 15.7778 0.777817 1.6
      vertex 15.6696 0.872688 1.6
    endloop
  endfacet
  facet normal -0.659276 -0.751901 -0
    outer loop
      vertex 15.7778 0.777817 1.6
      vertex 15.6696 0.872688 0
      vertex 15.7778 0.777817 0
    endloop
  endfacet
  facet normal 0.195113 0.980781 -0
    outer loop
      vertex 14.8564 -1.09059 0
      vertex 14.7153 -1.06252 1.6
      vertex 14.8564 -1.09059 1.6
    endloop
  endfacet
  facet normal 0.195113 0.980781 0
    outer loop
      vertex 14.7153 -1.06252 1.6
      vertex 14.8564 -1.09059 0
      vertex 14.7153 -1.06252 0
    endloop
  endfacet
  facet normal -0.751741 0.659458 0
    outer loop
      vertex 15.7778 -0.777817 0
      vertex 15.8727 -0.669637 1.6
      vertex 15.8727 -0.669637 0
    endloop
  endfacet
  facet normal -0.751741 0.659458 0
    outer loop
      vertex 15.8727 -0.669637 1.6
      vertex 15.7778 -0.777817 0
      vertex 15.7778 -0.777817 1.6
    endloop
  endfacet
  facet normal 0.947038 -0.321122 0
    outer loop
      vertex 13.9375 0.2847 1.6
      vertex 13.9837 0.420951 0
      vertex 13.9837 0.420951 1.6
    endloop
  endfacet
  facet normal 0.947038 -0.321122 0
    outer loop
      vertex 13.9837 0.420951 0
      vertex 13.9375 0.2847 1.6
      vertex 13.9375 0.2847 0
    endloop
  endfacet
  facet normal -0.065389 -0.99786 0
    outer loop
      vertex 15 1.1 0
      vertex 15.1436 1.09059 1.6
      vertex 15 1.1 1.6
    endloop
  endfacet
  facet normal -0.065389 -0.99786 -0
    outer loop
      vertex 15.1436 1.09059 1.6
      vertex 15 1.1 0
      vertex 15.1436 1.09059 0
    endloop
  endfacet
  facet normal 0.32133 -0.946967 0
    outer loop
      vertex 14.579 1.01627 0
      vertex 14.7153 1.06252 1.6
      vertex 14.579 1.01627 1.6
    endloop
  endfacet
  facet normal 0.32133 -0.946967 0
    outer loop
      vertex 14.7153 1.06252 1.6
      vertex 14.579 1.01627 0
      vertex 14.7153 1.06252 0
    endloop
  endfacet
  facet normal 0.997864 0.0653293 0
    outer loop
      vertex 13.9094 -0.143579 1.6
      vertex 13.9 0 0
      vertex 13.9 0 1.6
    endloop
  endfacet
  facet normal 0.997864 0.0653293 0
    outer loop
      vertex 13.9 0 0
      vertex 13.9094 -0.143579 1.6
      vertex 13.9094 -0.143579 0
    endloop
  endfacet
  facet normal 0.065389 0.99786 -0
    outer loop
      vertex 15 -1.1 0
      vertex 14.8564 -1.09059 1.6
      vertex 15 -1.1 1.6
    endloop
  endfacet
  facet normal 0.065389 0.99786 0
    outer loop
      vertex 14.8564 -1.09059 1.6
      vertex 15 -1.1 0
      vertex 14.8564 -1.09059 0
    endloop
  endfacet
  facet normal -0.997864 0.0653293 0
    outer loop
      vertex 16.0906 -0.143579 0
      vertex 16.1 0 1.6
      vertex 16.1 0 0
    endloop
  endfacet
  facet normal -0.997864 0.0653293 0
    outer loop
      vertex 16.1 0 1.6
      vertex 16.0906 -0.143579 0
      vertex 16.0906 -0.143579 1.6
    endloop
  endfacet
  facet normal -0.751741 -0.659458 0
    outer loop
      vertex 15.8727 0.669637 0
      vertex 15.7778 0.777817 1.6
      vertex 15.7778 0.777817 0
    endloop
  endfacet
  facet normal -0.751741 -0.659458 0
    outer loop
      vertex 15.7778 0.777817 1.6
      vertex 15.8727 0.669637 0
      vertex 15.8727 0.669637 1.6
    endloop
  endfacet
  facet normal 0.947038 0.321122 0
    outer loop
      vertex 13.9837 -0.420951 1.6
      vertex 13.9375 -0.2847 0
      vertex 13.9375 -0.2847 1.6
    endloop
  endfacet
  facet normal 0.947038 0.321122 0
    outer loop
      vertex 13.9375 -0.2847 0
      vertex 13.9837 -0.420951 1.6
      vertex 13.9837 -0.420951 0
    endloop
  endfacet
  facet normal 0.980746 0.195286 0
    outer loop
      vertex 13.9375 -0.2847 1.6
      vertex 13.9094 -0.143579 0
      vertex 13.9094 -0.143579 1.6
    endloop
  endfacet
  facet normal 0.980746 0.195286 0
    outer loop
      vertex 13.9094 -0.143579 0
      vertex 13.9375 -0.2847 1.6
      vertex 13.9375 -0.2847 0
    endloop
  endfacet
  facet normal 0.896706 0.442627 0
    outer loop
      vertex 14.0474 -0.549999 1.6
      vertex 13.9837 -0.420951 0
      vertex 13.9837 -0.420951 1.6
    endloop
  endfacet
  facet normal 0.896706 0.442627 0
    outer loop
      vertex 13.9837 -0.420951 0
      vertex 14.0474 -0.549999 1.6
      vertex 14.0474 -0.549999 0
    endloop
  endfacet
  facet normal -0.195113 -0.980781 0
    outer loop
      vertex 15.1436 1.09059 0
      vertex 15.2847 1.06252 1.6
      vertex 15.1436 1.09059 1.6
    endloop
  endfacet
  facet normal -0.195113 -0.980781 -0
    outer loop
      vertex 15.2847 1.06252 1.6
      vertex 15.1436 1.09059 0
      vertex 15.2847 1.06252 0
    endloop
  endfacet
  facet normal 0.751741 0.659458 0
    outer loop
      vertex 14.2222 -0.777817 1.6
      vertex 14.1273 -0.669637 0
      vertex 14.1273 -0.669637 1.6
    endloop
  endfacet
  facet normal 0.751741 0.659458 0
    outer loop
      vertex 14.1273 -0.669637 0
      vertex 14.2222 -0.777817 1.6
      vertex 14.2222 -0.777817 0
    endloop
  endfacet
  facet normal 0.659276 -0.751901 0
    outer loop
      vertex 14.2222 0.777817 0
      vertex 14.3304 0.872688 1.6
      vertex 14.2222 0.777817 1.6
    endloop
  endfacet
  facet normal 0.659276 -0.751901 0
    outer loop
      vertex 14.3304 0.872688 1.6
      vertex 14.2222 0.777817 0
      vertex 14.3304 0.872688 0
    endloop
  endfacet
  facet normal 0.896706 -0.442627 0
    outer loop
      vertex 13.9837 0.420951 1.6
      vertex 14.0474 0.549999 0
      vertex 14.0474 0.549999 1.6
    endloop
  endfacet
  facet normal 0.896706 -0.442627 0
    outer loop
      vertex 14.0474 0.549999 0
      vertex 13.9837 0.420951 1.6
      vertex 13.9837 0.420951 0
    endloop
  endfacet
  facet normal -0.831597 0.55538 0
    outer loop
      vertex 15.8727 -0.669637 0
      vertex 15.9526 -0.549999 1.6
      vertex 15.9526 -0.549999 0
    endloop
  endfacet
  facet normal -0.831597 0.55538 0
    outer loop
      vertex 15.9526 -0.549999 1.6
      vertex 15.8727 -0.669637 0
      vertex 15.8727 -0.669637 1.6
    endloop
  endfacet
  facet normal -0.831597 -0.55538 0
    outer loop
      vertex 15.9526 0.549999 0
      vertex 15.8727 0.669637 1.6
      vertex 15.8727 0.669637 0
    endloop
  endfacet
  facet normal -0.831597 -0.55538 0
    outer loop
      vertex 15.8727 0.669637 1.6
      vertex 15.9526 0.549999 0
      vertex 15.9526 0.549999 1.6
    endloop
  endfacet
  facet normal 0.751741 -0.659458 0
    outer loop
      vertex 14.1273 0.669637 1.6
      vertex 14.2222 0.777817 0
      vertex 14.2222 0.777817 1.6
    endloop
  endfacet
  facet normal 0.751741 -0.659458 0
    outer loop
      vertex 14.2222 0.777817 0
      vertex 14.1273 0.669637 1.6
      vertex 14.1273 0.669637 0
    endloop
  endfacet
  facet normal -0.659276 0.751901 0
    outer loop
      vertex 15.7778 -0.777817 0
      vertex 15.6696 -0.872688 1.6
      vertex 15.7778 -0.777817 1.6
    endloop
  endfacet
  facet normal -0.659276 0.751901 0
    outer loop
      vertex 15.6696 -0.872688 1.6
      vertex 15.7778 -0.777817 0
      vertex 15.6696 -0.872688 0
    endloop
  endfacet
  facet normal 0.831597 0.55538 0
    outer loop
      vertex 14.1273 -0.669637 1.6
      vertex 14.0474 -0.549999 0
      vertex 14.0474 -0.549999 1.6
    endloop
  endfacet
  facet normal 0.831597 0.55538 0
    outer loop
      vertex 14.0474 -0.549999 0
      vertex 14.1273 -0.669637 1.6
      vertex 14.1273 -0.669637 0
    endloop
  endfacet
  facet normal 0.195113 -0.980781 0
    outer loop
      vertex 14.7153 1.06252 0
      vertex 14.8564 1.09059 1.6
      vertex 14.7153 1.06252 1.6
    endloop
  endfacet
  facet normal 0.195113 -0.980781 0
    outer loop
      vertex 14.8564 1.09059 1.6
      vertex 14.7153 1.06252 0
      vertex 14.8564 1.09059 0
    endloop
  endfacet
  facet normal -0.947038 0.321122 0
    outer loop
      vertex 16.0163 -0.420951 0
      vertex 16.0625 -0.2847 1.6
      vertex 16.0625 -0.2847 0
    endloop
  endfacet
  facet normal -0.947038 0.321122 0
    outer loop
      vertex 16.0625 -0.2847 1.6
      vertex 16.0163 -0.420951 0
      vertex 16.0163 -0.420951 1.6
    endloop
  endfacet
  facet normal -0.442441 -0.896798 0
    outer loop
      vertex 15.421 1.01627 0
      vertex 15.55 0.952627 1.6
      vertex 15.421 1.01627 1.6
    endloop
  endfacet
  facet normal -0.442441 -0.896798 -0
    outer loop
      vertex 15.55 0.952627 1.6
      vertex 15.421 1.01627 0
      vertex 15.55 0.952627 0
    endloop
  endfacet
  facet normal 0.065389 -0.99786 0
    outer loop
      vertex 14.8564 1.09059 0
      vertex 15 1.1 1.6
      vertex 14.8564 1.09059 1.6
    endloop
  endfacet
  facet normal 0.065389 -0.99786 0
    outer loop
      vertex 15 1.1 1.6
      vertex 14.8564 1.09059 0
      vertex 15 1.1 0
    endloop
  endfacet
  facet normal -0.065389 0.99786 0
    outer loop
      vertex 15.1436 -1.09059 0
      vertex 15 -1.1 1.6
      vertex 15.1436 -1.09059 1.6
    endloop
  endfacet
  facet normal -0.065389 0.99786 0
    outer loop
      vertex 15 -1.1 1.6
      vertex 15.1436 -1.09059 0
      vertex 15 -1.1 0
    endloop
  endfacet
  facet normal -0.55569 -0.83139 0
    outer loop
      vertex 15.55 0.952627 0
      vertex 15.6696 0.872688 1.6
      vertex 15.55 0.952627 1.6
    endloop
  endfacet
  facet normal -0.55569 -0.83139 -0
    outer loop
      vertex 15.6696 0.872688 1.6
      vertex 15.55 0.952627 0
      vertex 15.6696 0.872688 0
    endloop
  endfacet
  facet normal 0.659276 0.751901 -0
    outer loop
      vertex 14.3304 -0.872688 0
      vertex 14.2222 -0.777817 1.6
      vertex 14.3304 -0.872688 1.6
    endloop
  endfacet
  facet normal 0.659276 0.751901 0
    outer loop
      vertex 14.2222 -0.777817 1.6
      vertex 14.3304 -0.872688 0
      vertex 14.2222 -0.777817 0
    endloop
  endfacet
  facet normal 0.980746 -0.195286 0
    outer loop
      vertex 13.9094 0.143579 1.6
      vertex 13.9375 0.2847 0
      vertex 13.9375 0.2847 1.6
    endloop
  endfacet
  facet normal 0.980746 -0.195286 0
    outer loop
      vertex 13.9375 0.2847 0
      vertex 13.9094 0.143579 1.6
      vertex 13.9094 0.143579 0
    endloop
  endfacet
  facet normal -0.896706 -0.442627 0
    outer loop
      vertex 16.0163 0.420951 0
      vertex 15.9526 0.549999 1.6
      vertex 15.9526 0.549999 0
    endloop
  endfacet
  facet normal -0.896706 -0.442627 0
    outer loop
      vertex 15.9526 0.549999 1.6
      vertex 16.0163 0.420951 0
      vertex 16.0163 0.420951 1.6
    endloop
  endfacet
  facet normal -0.195113 0.980781 0
    outer loop
      vertex 15.2847 -1.06252 0
      vertex 15.1436 -1.09059 1.6
      vertex 15.2847 -1.06252 1.6
    endloop
  endfacet
  facet normal -0.195113 0.980781 0
    outer loop
      vertex 15.1436 -1.09059 1.6
      vertex 15.2847 -1.06252 0
      vertex 15.1436 -1.09059 0
    endloop
  endfacet
  facet normal -0.896706 0.442627 0
    outer loop
      vertex 15.9526 -0.549999 0
      vertex 16.0163 -0.420951 1.6
      vertex 16.0163 -0.420951 0
    endloop
  endfacet
  facet normal -0.896706 0.442627 0
    outer loop
      vertex 16.0163 -0.420951 1.6
      vertex 15.9526 -0.549999 0
      vertex 15.9526 -0.549999 1.6
    endloop
  endfacet
  facet normal -0.980746 0.195286 0
    outer loop
      vertex 16.0625 -0.2847 0
      vertex 16.0906 -0.143579 1.6
      vertex 16.0906 -0.143579 0
    endloop
  endfacet
  facet normal -0.980746 0.195286 0
    outer loop
      vertex 16.0906 -0.143579 1.6
      vertex 16.0625 -0.2847 0
      vertex 16.0625 -0.2847 1.6
    endloop
  endfacet
  facet normal 0.55569 -0.83139 0
    outer loop
      vertex 14.3304 0.872688 0
      vertex 14.45 0.952627 1.6
      vertex 14.3304 0.872688 1.6
    endloop
  endfacet
  facet normal 0.55569 -0.83139 0
    outer loop
      vertex 14.45 0.952627 1.6
      vertex 14.3304 0.872688 0
      vertex 14.45 0.952627 0
    endloop
  endfacet
  facet normal -0.947038 -0.321122 0
    outer loop
      vertex 16.0625 0.2847 0
      vertex 16.0163 0.420951 1.6
      vertex 16.0163 0.420951 0
    endloop
  endfacet
  facet normal -0.947038 -0.321122 0
    outer loop
      vertex 16.0163 0.420951 1.6
      vertex 16.0625 0.2847 0
      vertex 16.0625 0.2847 1.6
    endloop
  endfacet
  facet normal -0.32133 0.946967 0
    outer loop
      vertex 15.421 -1.01627 0
      vertex 15.2847 -1.06252 1.6
      vertex 15.421 -1.01627 1.6
    endloop
  endfacet
  facet normal -0.32133 0.946967 0
    outer loop
      vertex 15.2847 -1.06252 1.6
      vertex 15.421 -1.01627 0
      vertex 15.2847 -1.06252 0
    endloop
  endfacet
  facet normal -0.442441 0.896798 0
    outer loop
      vertex 15.55 -0.952627 0
      vertex 15.421 -1.01627 1.6
      vertex 15.55 -0.952627 1.6
    endloop
  endfacet
  facet normal -0.442441 0.896798 0
    outer loop
      vertex 15.421 -1.01627 1.6
      vertex 15.55 -0.952627 0
      vertex 15.421 -1.01627 0
    endloop
  endfacet
  facet normal 0.997864 -0.0653293 0
    outer loop
      vertex 13.9 0 1.6
      vertex 13.9094 0.143579 0
      vertex 13.9094 0.143579 1.6
    endloop
  endfacet
  facet normal 0.997864 -0.0653293 0
    outer loop
      vertex 13.9094 0.143579 0
      vertex 13.9 0 1.6
      vertex 13.9 0 0
    endloop
  endfacet
  facet normal 0.32133 0.946967 -0
    outer loop
      vertex 14.7153 -1.06252 0
      vertex 14.579 -1.01627 1.6
      vertex 14.7153 -1.06252 1.6
    endloop
  endfacet
  facet normal 0.32133 0.946967 0
    outer loop
      vertex 14.579 -1.01627 1.6
      vertex 14.7153 -1.06252 0
      vertex 14.579 -1.01627 0
    endloop
  endfacet
  facet normal 0.442441 -0.896798 0
    outer loop
      vertex 14.45 0.952627 0
      vertex 14.579 1.01627 1.6
      vertex 14.45 0.952627 1.6
    endloop
  endfacet
  facet normal 0.442441 -0.896798 0
    outer loop
      vertex 14.579 1.01627 1.6
      vertex 14.45 0.952627 0
      vertex 14.579 1.01627 0
    endloop
  endfacet
  facet normal 0.831597 -0.55538 0
    outer loop
      vertex 14.0474 0.549999 1.6
      vertex 14.1273 0.669637 0
      vertex 14.1273 0.669637 1.6
    endloop
  endfacet
  facet normal 0.831597 -0.55538 0
    outer loop
      vertex 14.1273 0.669637 0
      vertex 14.0474 0.549999 1.6
      vertex 14.0474 0.549999 0
    endloop
  endfacet
  facet normal 0.442441 0.896798 -0
    outer loop
      vertex 14.579 -1.01627 0
      vertex 14.45 -0.952627 1.6
      vertex 14.579 -1.01627 1.6
    endloop
  endfacet
  facet normal 0.442441 0.896798 0
    outer loop
      vertex 14.45 -0.952627 1.6
      vertex 14.579 -1.01627 0
      vertex 14.45 -0.952627 0
    endloop
  endfacet
  facet normal 0.55569 0.83139 -0
    outer loop
      vertex 14.45 -0.952627 0
      vertex 14.3304 -0.872688 1.6
      vertex 14.45 -0.952627 1.6
    endloop
  endfacet
  facet normal 0.55569 0.83139 0
    outer loop
      vertex 14.3304 -0.872688 1.6
      vertex 14.45 -0.952627 0
      vertex 14.3304 -0.872688 0
    endloop
  endfacet
  facet normal 1 -0 0
    outer loop
      vertex 20 -13.9 1.6
      vertex 20 13.9 0
      vertex 20 13.9 1.6
    endloop
  endfacet
  facet normal 1 0 0
    outer loop
      vertex 20 13.9 0
      vertex 20 -13.9 1.6
      vertex 20 -13.9 0
    endloop
  endfacet
  facet normal 0 0 1
    outer loop
      vertex 20 13.9 1.6
      vertex 16.1 0 1.6
      vertex 20 -13.9 1.6
    endloop
  endfacet
  facet normal 0 0 1
    outer loop
      vertex 20 13.9 1.6
      vertex 16.0906 0.143579 1.6
      vertex 16.1 0 1.6
    endloop
  endfacet
  facet normal 0 0 1
    outer loop
      vertex 20 13.9 1.6
      vertex 16.0625 0.2847 1.6
      vertex 16.0906 0.143579 1.6
    endloop
  endfacet
  facet normal 0 0 1
    outer loop
      vertex 20 13.9 1.6
      vertex 16.0163 0.420951 1.6
      vertex 16.0625 0.2847 1.6
    endloop
  endfacet
  facet normal 0 0 1
    outer loop
      vertex 20 13.9 1.6
      vertex 15.9526 0.549999 1.6
      vertex 16.0163 0.420951 1.6
    endloop
  endfacet
  facet normal 0 0 1
    outer loop
      vertex 20 13.9 1.6
      vertex 15.8727 0.669637 1.6
      vertex 15.9526 0.549999 1.6
    endloop
  endfacet
  facet normal 0 0 1
    outer loop
      vertex 20 13.9 1.6
      vertex 15.7778 0.777817 1.6
      vertex 15.8727 0.669637 1.6
    endloop
  endfacet
  facet normal 0 0 1
    outer loop
      vertex 20 13.9 1.6
      vertex 15.6696 0.872688 1.6
      vertex 15.7778 0.777817 1.6
    endloop
  endfacet
  facet normal 0 0 1
    outer loop
      vertex 20 13.9 1.6
      vertex 15.55 0.952627 1.6
      vertex 15.6696 0.872688 1.6
    endloop
  endfacet
  facet normal 0 0 1
    outer loop
      vertex 20 13.9 1.6
      vertex 15.421 1.01627 1.6
      vertex 15.55 0.952627 1.6
    endloop
  endfacet
  facet normal 0 0 1
    outer loop
      vertex 20 13.9 1.6
      vertex 15.2847 1.06252 1.6
      vertex 15.421 1.01627 1.6
    endloop
  endfacet
  facet normal 0 0 1
    outer loop
      vertex 20 13.9 1.6
      vertex 15.1436 1.09059 1.6
      vertex 15.2847 1.06252 1.6
    endloop
  endfacet
  facet normal 0 0 1
    outer loop
      vertex 20 13.9 1.6
      vertex 15 1.1 1.6
      vertex 15.1436 1.09059 1.6
    endloop
  endfacet
  facet normal 0 0 1
    outer loop
      vertex 20 13.9 1.6
      vertex 14.8564 1.09059 1.6
      vertex 15 1.1 1.6
    endloop
  endfacet
  facet normal 0 0 1
    outer loop
      vertex 20 13.9 1.6
      vertex 14.7153 1.06252 1.6
      vertex 14.8564 1.09059 1.6
    endloop
  endfacet
  facet normal 0 0 1
    outer loop
      vertex 20 13.9 1.6
      vertex 14.579 1.01627 1.6
      vertex 14.7153 1.06252 1.6
    endloop
  endfacet
  facet normal 0 0 1
    outer loop
      vertex 20 13.9 1.6
      vertex 14.45 0.952627 1.6
      vertex 14.579 1.01627 1.6
    endloop
  endfacet
  facet normal 0 0 1
    outer loop
      vertex 20 13.9 1.6
      vertex 14.3304 0.872688 1.6
      vertex 14.45 0.952627 1.6
    endloop
  endfacet
  facet normal 0 0 1
    outer loop
      vertex 20 13.9 1.6
      vertex 14.2222 0.777817 1.6
      vertex 14.3304 0.872688 1.6
    endloop
  endfacet
  facet normal 0 0 1
    outer loop
      vertex -10.9 -0.210644 1.6
      vertex 14.2222 0.777817 1.6
      vertex 20 13.9 1.6
    endloop
  endfacet
  facet normal 0 0 1
    outer loop
      vertex 14.2222 0.777817 1.6
      vertex -10.9 -0.210644 1.6
      vertex 14.1273 0.669637 1.6
    endloop
  endfacet
  facet normal 0 0 1
    outer loop
      vertex 14.1273 0.669637 1.6
      vertex -10.9 -0.210644 1.6
      vertex 14.0474 0.549999 1.6
    endloop
  endfacet
  facet normal 0 0 1
    outer loop
      vertex -10.9 -0.210644 1.6
      vertex 13.9 0 1.6
      vertex 13.9094 0.143579 1.6
    endloop
  endfacet
  facet normal 0 0 1
    outer loop
      vertex 13.9 0 1.6
      vertex -10.9 -0.210644 1.6
      vertex 12.5 -9.64268 1.6
    endloop
  endfacet
  facet normal 0 0 1
    outer loop
      vertex 13.9375 0.2847 1.6
      vertex -10.9 -0.210644 1.6
      vertex 13.9094 0.143579 1.6
    endloop
  endfacet
  facet normal 0 0 1
    outer loop
      vertex 13.9837 0.420951 1.6
      vertex -10.9 -0.210644 1.6
      vertex 13.9375 0.2847 1.6
    endloop
  endfacet
  facet normal 0 0 1
    outer loop
      vertex 14.0474 0.549999 1.6
      vertex -10.9 -0.210644 1.6
      vertex 13.9837 0.420951 1.6
    endloop
  endfacet
  facet normal -0 0 1
    outer loop
      vertex -20 13.9 1.6
      vertex -10.9 -0.210644 1.6
      vertex 20 13.9 1.6
    endloop
  endfacet
  facet normal -0 0 1
    outer loop
      vertex -13.9094 -0.143579 1.6
      vertex -12.5 -0.210644 1.6
      vertex -13.9 0 1.6
    endloop
  endfacet
  facet normal -0 -0 1
    outer loop
      vertex -14.45 0.952627 1.6
      vertex -10.9 -0.210644 1.6
      vertex -20 13.9 1.6
    endloop
  endfacet
  facet normal 0 0 1
    outer loop
      vertex -12.5 -0.210644 1.6
      vertex -13.9094 0.143579 1.6
      vertex -13.9 0 1.6
    endloop
  endfacet
  facet normal 0 0 1
    outer loop
      vertex -12.5 -0.210644 1.6
      vertex -13.9375 0.2847 1.6
      vertex -13.9094 0.143579 1.6
    endloop
  endfacet
  facet normal 0 0 1
    outer loop
      vertex -12.5 -0.210644 1.6
      vertex -13.9837 0.420951 1.6
      vertex -13.9375 0.2847 1.6
    endloop
  endfacet
  facet normal 0 0 1
    outer loop
      vertex -12.5 -0.210644 1.6
      vertex -14.0474 0.549999 1.6
      vertex -13.9837 0.420951 1.6
    endloop
  endfacet
  facet normal 0 0 1
    outer loop
      vertex -12.5 -0.210644 1.6
      vertex -14.1273 0.669637 1.6
      vertex -14.0474 0.549999 1.6
    endloop
  endfacet
  facet normal 0 0 1
    outer loop
      vertex -12.5 -0.210644 1.6
      vertex -14.2222 0.777817 1.6
      vertex -14.1273 0.669637 1.6
    endloop
  endfacet
  facet normal -0 -0 1
    outer loop
      vertex -14.2222 0.777817 1.6
      vertex -10.9 -0.210644 1.6
      vertex -14.3304 0.872688 1.6
    endloop
  endfacet
  facet normal 0 0 1
    outer loop
      vertex -10.9 -0.210644 1.6
      vertex -14.2222 0.777817 1.6
      vertex -12.5 -0.210644 1.6
    endloop
  endfacet
  facet normal 0 0 1
    outer loop
      vertex -10.9 -0.210644 1.6
      vertex -14.45 0.952627 1.6
      vertex -14.3304 0.872688 1.6
    endloop
  endfacet
  facet normal 0 0 1
    outer loop
      vertex -14.45 0.952627 1.6
      vertex -20 13.9 1.6
      vertex -14.579 1.01627 1.6
    endloop
  endfacet
  facet normal 0 0 1
    outer loop
      vertex -14.579 1.01627 1.6
      vertex -20 13.9 1.6
      vertex -14.7153 1.06252 1.6
    endloop
  endfacet
  facet normal 0 0 1
    outer loop
      vertex -14.7153 1.06252 1.6
      vertex -20 13.9 1.6
      vertex -14.8564 1.09059 1.6
    endloop
  endfacet
  facet normal 0 0 1
    outer loop
      vertex -14.8564 1.09059 1.6
      vertex -20 13.9 1.6
      vertex -15 1.1 1.6
    endloop
  endfacet
  facet normal 0 0 1
    outer loop
      vertex -15 1.1 1.6
      vertex -20 13.9 1.6
      vertex -15.1436 1.09059 1.6
    endloop
  endfacet
  facet normal 0 0 1
    outer loop
      vertex -15.1436 1.09059 1.6
      vertex -20 13.9 1.6
      vertex -15.2847 1.06252 1.6
    endloop
  endfacet
  facet normal 0 0 1
    outer loop
      vertex -16.0906 0.143579 1.6
      vertex -20 13.9 1.6
      vertex -16.1 0 1.6
    endloop
  endfacet
  facet normal 0 0 1
    outer loop
      vertex -16.0625 0.2847 1.6
      vertex -20 13.9 1.6
      vertex -16.0906 0.143579 1.6
    endloop
  endfacet
  facet normal 0 0 1
    outer loop
      vertex -16.0163 0.420951 1.6
      vertex -20 13.9 1.6
      vertex -16.0625 0.2847 1.6
    endloop
  endfacet
  facet normal 0 0 1
    outer loop
      vertex -15.9526 0.549999 1.6
      vertex -20 13.9 1.6
      vertex -16.0163 0.420951 1.6
    endloop
  endfacet
  facet normal 0 0 1
    outer loop
      vertex -15.8727 0.669637 1.6
      vertex -20 13.9 1.6
      vertex -15.9526 0.549999 1.6
    endloop
  endfacet
  facet normal 0 0 1
    outer loop
      vertex -15.7778 0.777817 1.6
      vertex -20 13.9 1.6
      vertex -15.8727 0.669637 1.6
    endloop
  endfacet
  facet normal 0 0 1
    outer loop
      vertex -15.6696 0.872688 1.6
      vertex -20 13.9 1.6
      vertex -15.7778 0.777817 1.6
    endloop
  endfacet
  facet normal 0 0 1
    outer loop
      vertex -15.55 0.952627 1.6
      vertex -20 13.9 1.6
      vertex -15.6696 0.872688 1.6
    endloop
  endfacet
  facet normal 0 0 1
    outer loop
      vertex -15.421 1.01627 1.6
      vertex -20 13.9 1.6
      vertex -15.55 0.952627 1.6
    endloop
  endfacet
  facet normal 0 0 1
    outer loop
      vertex -15.2847 1.06252 1.6
      vertex -20 13.9 1.6
      vertex -15.421 1.01627 1.6
    endloop
  endfacet
  facet normal -0 0 1
    outer loop
      vertex 16.0906 -0.143579 1.6
      vertex 20 -13.9 1.6
      vertex 16.1 0 1.6
    endloop
  endfacet
  facet normal -0 0 1
    outer loop
      vertex 16.0625 -0.2847 1.6
      vertex 20 -13.9 1.6
      vertex 16.0906 -0.143579 1.6
    endloop
  endfacet
  facet normal -0 0 1
    outer loop
      vertex 16.0163 -0.420951 1.6
      vertex 20 -13.9 1.6
      vertex 16.0625 -0.2847 1.6
    endloop
  endfacet
  facet normal -0 0 1
    outer loop
      vertex 15.9526 -0.549999 1.6
      vertex 20 -13.9 1.6
      vertex 16.0163 -0.420951 1.6
    endloop
  endfacet
  facet normal -0 0 1
    outer loop
      vertex 15.8727 -0.669637 1.6
      vertex 20 -13.9 1.6
      vertex 15.9526 -0.549999 1.6
    endloop
  endfacet
  facet normal -0 0 1
    outer loop
      vertex 15.7778 -0.777817 1.6
      vertex 20 -13.9 1.6
      vertex 15.8727 -0.669637 1.6
    endloop
  endfacet
  facet normal -0 0 1
    outer loop
      vertex 15.6696 -0.872688 1.6
      vertex 20 -13.9 1.6
      vertex 15.7778 -0.777817 1.6
    endloop
  endfacet
  facet normal -0 0 1
    outer loop
      vertex 15.55 -0.952627 1.6
      vertex 20 -13.9 1.6
      vertex 15.6696 -0.872688 1.6
    endloop
  endfacet
  facet normal 0 0 1
    outer loop
      vertex 12.5 -9.64268 1.6
      vertex 15.55 -0.952627 1.6
      vertex 15.421 -1.01627 1.6
    endloop
  endfacet
  facet normal 0 0 1
    outer loop
      vertex 12.5 -9.64268 1.6
      vertex 15.421 -1.01627 1.6
      vertex 15.2847 -1.06252 1.6
    endloop
  endfacet
  facet normal 0 0 1
    outer loop
      vertex 12.5 -9.64268 1.6
      vertex 15.2847 -1.06252 1.6
      vertex 15.1436 -1.09059 1.6
    endloop
  endfacet
  facet normal 0 0 1
    outer loop
      vertex 12.5 -9.64268 1.6
      vertex 15.1436 -1.09059 1.6
      vertex 15 -1.1 1.6
    endloop
  endfacet
  facet normal 0 0 1
    outer loop
      vertex 12.5 -9.64268 1.6
      vertex 15 -1.1 1.6
      vertex 14.8564 -1.09059 1.6
    endloop
  endfacet
  facet normal 0 0 1
    outer loop
      vertex 12.5 -9.64268 1.6
      vertex 14.8564 -1.09059 1.6
      vertex 14.7153 -1.06252 1.6
    endloop
  endfacet
  facet normal 0 0 1
    outer loop
      vertex 12.5 -9.64268 1.6
      vertex 14.7153 -1.06252 1.6
      vertex 14.579 -1.01627 1.6
    endloop
  endfacet
  facet normal 0 0 1
    outer loop
      vertex 12.5 -9.64268 1.6
      vertex 14.579 -1.01627 1.6
      vertex 14.45 -0.952627 1.6
    endloop
  endfacet
  facet normal 0 0 1
    outer loop
      vertex 12.5 -9.64268 1.6
      vertex 14.45 -0.952627 1.6
      vertex 14.3304 -0.872688 1.6
    endloop
  endfacet
  facet normal 0 0 1
    outer loop
      vertex 12.5 -9.64268 1.6
      vertex 14.3304 -0.872688 1.6
      vertex 14.2222 -0.777817 1.6
    endloop
  endfacet
  facet normal 0 0 1
    outer loop
      vertex 12.5 -9.64268 1.6
      vertex 14.2222 -0.777817 1.6
      vertex 14.1273 -0.669637 1.6
    endloop
  endfacet
  facet normal 0 0 1
    outer loop
      vertex 12.5 -9.64268 1.6
      vertex 14.1273 -0.669637 1.6
      vertex 14.0474 -0.549999 1.6
    endloop
  endfacet
  facet normal 0 0 1
    outer loop
      vertex 12.5 -9.64268 1.6
      vertex 14.0474 -0.549999 1.6
      vertex 13.9837 -0.420951 1.6
    endloop
  endfacet
  facet normal 0 0 1
    outer loop
      vertex 12.5 -9.64268 1.6
      vertex 13.9094 -0.143579 1.6
      vertex 13.9 0 1.6
    endloop
  endfacet
  facet normal 0 0 1
    outer loop
      vertex 12.5 -9.64268 1.6
      vertex 13.9375 -0.2847 1.6
      vertex 13.9094 -0.143579 1.6
    endloop
  endfacet
  facet normal 0 0 1
    outer loop
      vertex 12.5 -9.64268 1.6
      vertex 13.9837 -0.420951 1.6
      vertex 13.9375 -0.2847 1.6
    endloop
  endfacet
  facet normal 0 0 1
    outer loop
      vertex 15.55 -0.952627 1.6
      vertex 12.5 -9.64268 1.6
      vertex 20 -13.9 1.6
    endloop
  endfacet
  facet normal -0 0 1
    outer loop
      vertex 12.5 -11.2991 1.6
      vertex 20 -13.9 1.6
      vertex 12.5 -9.64268 1.6
    endloop
  endfacet
  facet normal -0 0 1
    outer loop
      vertex -12.5 -11.2991 1.6
      vertex 20 -13.9 1.6
      vertex 12.5 -11.2991 1.6
    endloop
  endfacet
  facet normal 0 0 1
    outer loop
      vertex -13.9375 -0.2847 1.6
      vertex -12.5 -0.210644 1.6
      vertex -13.9094 -0.143579 1.6
    endloop
  endfacet
  facet normal 0 0 1
    outer loop
      vertex -13.9837 -0.420951 1.6
      vertex -12.5 -0.210644 1.6
      vertex -13.9375 -0.2847 1.6
    endloop
  endfacet
  facet normal 0 0 1
    outer loop
      vertex -14.0474 -0.549999 1.6
      vertex -12.5 -0.210644 1.6
      vertex -13.9837 -0.420951 1.6
    endloop
  endfacet
  facet normal 0 0 1
    outer loop
      vertex -14.1273 -0.669637 1.6
      vertex -12.5 -0.210644 1.6
      vertex -14.0474 -0.549999 1.6
    endloop
  endfacet
  facet normal 0 0 1
    outer loop
      vertex -14.2222 -0.777817 1.6
      vertex -12.5 -0.210644 1.6
      vertex -14.1273 -0.669637 1.6
    endloop
  endfacet
  facet normal 0 0 1
    outer loop
      vertex -14.3304 -0.872688 1.6
      vertex -12.5 -0.210644 1.6
      vertex -14.2222 -0.777817 1.6
    endloop
  endfacet
  facet normal 0 0 1
    outer loop
      vertex -14.45 -0.952627 1.6
      vertex -12.5 -0.210644 1.6
      vertex -14.3304 -0.872688 1.6
    endloop
  endfacet
  facet normal 0 0 1
    outer loop
      vertex -12.5 -0.210644 1.6
      vertex -14.45 -0.952627 1.6
      vertex -12.5 -11.2991 1.6
    endloop
  endfacet
  facet normal -0 0 1
    outer loop
      vertex -14.579 -1.01627 1.6
      vertex -12.5 -11.2991 1.6
      vertex -14.45 -0.952627 1.6
    endloop
  endfacet
  facet normal -0 0 1
    outer loop
      vertex -14.7153 -1.06252 1.6
      vertex -12.5 -11.2991 1.6
      vertex -14.579 -1.01627 1.6
    endloop
  endfacet
  facet normal -0 0 1
    outer loop
      vertex -14.8564 -1.09059 1.6
      vertex -12.5 -11.2991 1.6
      vertex -14.7153 -1.06252 1.6
    endloop
  endfacet
  facet normal -0 0 1
    outer loop
      vertex -15 -1.1 1.6
      vertex -12.5 -11.2991 1.6
      vertex -14.8564 -1.09059 1.6
    endloop
  endfacet
  facet normal 0 0 1
    outer loop
      vertex -15.1436 -1.09059 1.6
      vertex -12.5 -11.2991 1.6
      vertex -15 -1.1 1.6
    endloop
  endfacet
  facet normal 0 0 1
    outer loop
      vertex -15.2847 -1.06252 1.6
      vertex -12.5 -11.2991 1.6
      vertex -15.1436 -1.09059 1.6
    endloop
  endfacet
  facet normal 0 0 1
    outer loop
      vertex -15.421 -1.01627 1.6
      vertex -12.5 -11.2991 1.6
      vertex -15.2847 -1.06252 1.6
    endloop
  endfacet
  facet normal 0 0 1
    outer loop
      vertex -20 -13.9 1.6
      vertex -15.421 -1.01627 1.6
      vertex -15.55 -0.952627 1.6
    endloop
  endfacet
  facet normal 0 0 1
    outer loop
      vertex -20 -13.9 1.6
      vertex -15.55 -0.952627 1.6
      vertex -15.6696 -0.872688 1.6
    endloop
  endfacet
  facet normal 0 0 1
    outer loop
      vertex -20 -13.9 1.6
      vertex -15.6696 -0.872688 1.6
      vertex -15.7778 -0.777817 1.6
    endloop
  endfacet
  facet normal 0 0 1
    outer loop
      vertex -20 -13.9 1.6
      vertex -15.7778 -0.777817 1.6
      vertex -15.8727 -0.669637 1.6
    endloop
  endfacet
  facet normal 0 0 1
    outer loop
      vertex -20 -13.9 1.6
      vertex -15.8727 -0.669637 1.6
      vertex -15.9526 -0.549999 1.6
    endloop
  endfacet
  facet normal 0 0 1
    outer loop
      vertex -20 -13.9 1.6
      vertex -15.9526 -0.549999 1.6
      vertex -16.0163 -0.420951 1.6
    endloop
  endfacet
  facet normal 0 0 1
    outer loop
      vertex -20 -13.9 1.6
      vertex -16.0163 -0.420951 1.6
      vertex -16.0625 -0.2847 1.6
    endloop
  endfacet
  facet normal 0 0 1
    outer loop
      vertex -20 -13.9 1.6
      vertex -16.1 0 1.6
      vertex -20 13.9 1.6
    endloop
  endfacet
  facet normal 0 0 1
    outer loop
      vertex -16.1 0 1.6
      vertex -20 -13.9 1.6
      vertex -16.0906 -0.143579 1.6
    endloop
  endfacet
  facet normal 0 0 1
    outer loop
      vertex -12.5 -11.2991 1.6
      vertex -20 -13.9 1.6
      vertex 20 -13.9 1.6
    endloop
  endfacet
  facet normal 0 0 1
    outer loop
      vertex -15.421 -1.01627 1.6
      vertex -20 -13.9 1.6
      vertex -12.5 -11.2991 1.6
    endloop
  endfacet
  facet normal 0 0 1
    outer loop
      vertex -16.0906 -0.143579 1.6
      vertex -20 -13.9 1.6
      vertex -16.0625 -0.2847 1.6
    endloop
  endfacet
  facet normal 0 0 1
    outer loop
      vertex 12.5 -9.64268 1.6
      vertex -10.9 -0.210644 1.6
      vertex -10.9 -9.64268 1.6
    endloop
  endfacet
  facet normal 0 0 -1
    outer loop
      vertex 20 -13.9 0
      vertex 16.1 0 0
      vertex 20 13.9 0
    endloop
  endfacet
  facet normal 0 0 -1
    outer loop
      vertex 20 -13.9 0
      vertex 16.0906 -0.143579 0
      vertex 16.1 0 0
    endloop
  endfacet
  facet normal 0 0 -1
    outer loop
      vertex 20 -13.9 0
      vertex 16.0625 -0.2847 0
      vertex 16.0906 -0.143579 0
    endloop
  endfacet
  facet normal 0 0 -1
    outer loop
      vertex 20 -13.9 0
      vertex 16.0163 -0.420951 0
      vertex 16.0625 -0.2847 0
    endloop
  endfacet
  facet normal 0 0 -1
    outer loop
      vertex 20 -13.9 0
      vertex 15.9526 -0.549999 0
      vertex 16.0163 -0.420951 0
    endloop
  endfacet
  facet normal 0 0 -1
    outer loop
      vertex 20 -13.9 0
      vertex 15.8727 -0.669637 0
      vertex 15.9526 -0.549999 0
    endloop
  endfacet
  facet normal 0 0 -1
    outer loop
      vertex 20 -13.9 0
      vertex 15.7778 -0.777817 0
      vertex 15.8727 -0.669637 0
    endloop
  endfacet
  facet normal 0 0 -1
    outer loop
      vertex 20 -13.9 0
      vertex 15.6696 -0.872688 0
      vertex 15.7778 -0.777817 0
    endloop
  endfacet
  facet normal 0 0 -1
    outer loop
      vertex 20 -13.9 0
      vertex 15.55 -0.952627 0
      vertex 15.6696 -0.872688 0
    endloop
  endfacet
  facet normal 0 0 -1
    outer loop
      vertex 12.5 -9.21396 0
      vertex 15.55 -0.952627 0
      vertex 20 -13.9 0
    endloop
  endfacet
  facet normal 0 0 -1
    outer loop
      vertex 15.55 -0.952627 0
      vertex 12.5 -9.21396 0
      vertex 15.421 -1.01627 0
    endloop
  endfacet
  facet normal 0 0 -1
    outer loop
      vertex 15.421 -1.01627 0
      vertex 12.5 -9.21396 0
      vertex 15.2847 -1.06252 0
    endloop
  endfacet
  facet normal 0 0 -1
    outer loop
      vertex 15.2847 -1.06252 0
      vertex 12.5 -9.21396 0
      vertex 15.1436 -1.09059 0
    endloop
  endfacet
  facet normal 0 0 -1
    outer loop
      vertex 15.1436 -1.09059 0
      vertex 12.5 -9.21396 0
      vertex 15 -1.1 0
    endloop
  endfacet
  facet normal -0 0 -1
    outer loop
      vertex 15 -1.1 0
      vertex 12.5 -9.21396 0
      vertex 14.8564 -1.09059 0
    endloop
  endfacet
  facet normal -0 0 -1
    outer loop
      vertex 14.8564 -1.09059 0
      vertex 12.5 -9.21396 0
      vertex 14.7153 -1.06252 0
    endloop
  endfacet
  facet normal -0 0 -1
    outer loop
      vertex 14.7153 -1.06252 0
      vertex 12.5 -9.21396 0
      vertex 14.579 -1.01627 0
    endloop
  endfacet
  facet normal -0 0 -1
    outer loop
      vertex 14.579 -1.01627 0
      vertex 12.5 -9.21396 0
      vertex 14.45 -0.952627 0
    endloop
  endfacet
  facet normal -0 0 -1
    outer loop
      vertex 14.45 -0.952627 0
      vertex 12.5 -9.21396 0
      vertex 14.3304 -0.872688 0
    endloop
  endfacet
  facet normal -0 0 -1
    outer loop
      vertex 14.3304 -0.872688 0
      vertex 12.5 -9.21396 0
      vertex 14.2222 -0.777817 0
    endloop
  endfacet
  facet normal -0 0 -1
    outer loop
      vertex 14.2222 -0.777817 0
      vertex 12.5 -9.21396 0
      vertex 14.1273 -0.669637 0
    endloop
  endfacet
  facet normal -0 0 -1
    outer loop
      vertex 14.1273 -0.669637 0
      vertex 12.5 -9.21396 0
      vertex 14.0474 -0.549999 0
    endloop
  endfacet
  facet normal 0 0 -1
    outer loop
      vertex -10.9 -6.18192 0
      vertex 13.9375 -0.2847 0
      vertex 12.5 -9.21396 0
    endloop
  endfacet
  facet normal -0 0 -1
    outer loop
      vertex 13.9837 -0.420951 0
      vertex 12.5 -9.21396 0
      vertex 13.9375 -0.2847 0
    endloop
  endfacet
  facet normal -0 0 -1
    outer loop
      vertex 14.0474 -0.549999 0
      vertex 12.5 -9.21396 0
      vertex 13.9837 -0.420951 0
    endloop
  endfacet
  facet normal 0 0 -1
    outer loop
      vertex 12.5 -9.21396 0
      vertex 20 -13.9 0
      vertex 12.5 -10.8704 0
    endloop
  endfacet
  facet normal 0 0 -1
    outer loop
      vertex 20 -13.9 0
      vertex -12.5 -10.8704 0
      vertex 12.5 -10.8704 0
    endloop
  endfacet
  facet normal 0 0 -1
    outer loop
      vertex -20 -13.9 0
      vertex -12.5 -6.18192 0
      vertex -12.5 -10.8704 0
    endloop
  endfacet
  facet normal 0 0 -1
    outer loop
      vertex -12.5 -6.18192 0
      vertex -13.9094 -0.143579 0
      vertex -13.9 0 0
    endloop
  endfacet
  facet normal 0 0 -1
    outer loop
      vertex -12.5 -6.18192 0
      vertex -13.9375 -0.2847 0
      vertex -13.9094 -0.143579 0
    endloop
  endfacet
  facet normal 0 0 -1
    outer loop
      vertex -12.5 -6.18192 0
      vertex -13.9837 -0.420951 0
      vertex -13.9375 -0.2847 0
    endloop
  endfacet
  facet normal 0 0 -1
    outer loop
      vertex -12.5 -6.18192 0
      vertex -14.0474 -0.549999 0
      vertex -13.9837 -0.420951 0
    endloop
  endfacet
  facet normal 0 0 -1
    outer loop
      vertex -12.5 -6.18192 0
      vertex -14.1273 -0.669637 0
      vertex -14.0474 -0.549999 0
    endloop
  endfacet
  facet normal 0 0 -1
    outer loop
      vertex -12.5 -6.18192 0
      vertex -14.2222 -0.777817 0
      vertex -14.1273 -0.669637 0
    endloop
  endfacet
  facet normal 0 0 -1
    outer loop
      vertex -12.5 -6.18192 0
      vertex -14.3304 -0.872688 0
      vertex -14.2222 -0.777817 0
    endloop
  endfacet
  facet normal 0 0 -1
    outer loop
      vertex -12.5 -6.18192 0
      vertex -14.45 -0.952627 0
      vertex -14.3304 -0.872688 0
    endloop
  endfacet
  facet normal 0 0 -1
    outer loop
      vertex -12.5 -6.18192 0
      vertex -14.579 -1.01627 0
      vertex -14.45 -0.952627 0
    endloop
  endfacet
  facet normal 0 0 -1
    outer loop
      vertex -12.5 -6.18192 0
      vertex -14.7153 -1.06252 0
      vertex -14.579 -1.01627 0
    endloop
  endfacet
  facet normal 0 0 -1
    outer loop
      vertex -12.5 -6.18192 0
      vertex -14.8564 -1.09059 0
      vertex -14.7153 -1.06252 0
    endloop
  endfacet
  facet normal 0 0 -1
    outer loop
      vertex -12.5 -6.18192 0
      vertex -15 -1.1 0
      vertex -14.8564 -1.09059 0
    endloop
  endfacet
  facet normal 0 0 -1
    outer loop
      vertex -12.5 -6.18192 0
      vertex -15.1436 -1.09059 0
      vertex -15 -1.1 0
    endloop
  endfacet
  facet normal 0 0 -1
    outer loop
      vertex -12.5 -6.18192 0
      vertex -15.2847 -1.06252 0
      vertex -15.1436 -1.09059 0
    endloop
  endfacet
  facet normal 0 0 -1
    outer loop
      vertex -12.5 -6.18192 0
      vertex -15.421 -1.01627 0
      vertex -15.2847 -1.06252 0
    endloop
  endfacet
  facet normal 0 -0 -1
    outer loop
      vertex -15.55 -0.952627 0
      vertex -12.5 -6.18192 0
      vertex -20 -13.9 0
    endloop
  endfacet
  facet normal 0 0 -1
    outer loop
      vertex -12.5 -6.18192 0
      vertex -15.55 -0.952627 0
      vertex -15.421 -1.01627 0
    endloop
  endfacet
  facet normal -0 0 -1
    outer loop
      vertex -15.55 -0.952627 0
      vertex -20 -13.9 0
      vertex -15.6696 -0.872688 0
    endloop
  endfacet
  facet normal -0 0 -1
    outer loop
      vertex -15.6696 -0.872688 0
      vertex -20 -13.9 0
      vertex -15.7778 -0.777817 0
    endloop
  endfacet
  facet normal -0 0 -1
    outer loop
      vertex -15.7778 -0.777817 0
      vertex -20 -13.9 0
      vertex -15.8727 -0.669637 0
    endloop
  endfacet
  facet normal -0 0 -1
    outer loop
      vertex -15.8727 -0.669637 0
      vertex -20 -13.9 0
      vertex -15.9526 -0.549999 0
    endloop
  endfacet
  facet normal -0 0 -1
    outer loop
      vertex -15.9526 -0.549999 0
      vertex -20 -13.9 0
      vertex -16.0163 -0.420951 0
    endloop
  endfacet
  facet normal -0 0 -1
    outer loop
      vertex -16.0906 -0.143579 0
      vertex -20 -13.9 0
      vertex -16.1 0 0
    endloop
  endfacet
  facet normal -0 0 -1
    outer loop
      vertex -16.0625 -0.2847 0
      vertex -20 -13.9 0
      vertex -16.0906 -0.143579 0
    endloop
  endfacet
  facet normal -0 0 -1
    outer loop
      vertex -16.0163 -0.420951 0
      vertex -20 -13.9 0
      vertex -16.0625 -0.2847 0
    endloop
  endfacet
  facet normal 0 0 -1
    outer loop
      vertex -20 -13.9 0
      vertex -12.5 -10.8704 0
      vertex 20 -13.9 0
    endloop
  endfacet
  facet normal 0 0 -1
    outer loop
      vertex 16.0906 0.143579 0
      vertex 20 13.9 0
      vertex 16.1 0 0
    endloop
  endfacet
  facet normal 0 0 -1
    outer loop
      vertex 16.0625 0.2847 0
      vertex 20 13.9 0
      vertex 16.0906 0.143579 0
    endloop
  endfacet
  facet normal 0 0 -1
    outer loop
      vertex 16.0163 0.420951 0
      vertex 20 13.9 0
      vertex 16.0625 0.2847 0
    endloop
  endfacet
  facet normal 0 0 -1
    outer loop
      vertex 15.9526 0.549999 0
      vertex 20 13.9 0
      vertex 16.0163 0.420951 0
    endloop
  endfacet
  facet normal 0 0 -1
    outer loop
      vertex 15.8727 0.669637 0
      vertex 20 13.9 0
      vertex 15.9526 0.549999 0
    endloop
  endfacet
  facet normal 0 0 -1
    outer loop
      vertex 15.7778 0.777817 0
      vertex 20 13.9 0
      vertex 15.8727 0.669637 0
    endloop
  endfacet
  facet normal 0 0 -1
    outer loop
      vertex 15.6696 0.872688 0
      vertex 20 13.9 0
      vertex 15.7778 0.777817 0
    endloop
  endfacet
  facet normal 0 0 -1
    outer loop
      vertex 15.55 0.952627 0
      vertex 20 13.9 0
      vertex 15.6696 0.872688 0
    endloop
  endfacet
  facet normal 0 0 -1
    outer loop
      vertex 15.421 1.01627 0
      vertex 20 13.9 0
      vertex 15.55 0.952627 0
    endloop
  endfacet
  facet normal 0 0 -1
    outer loop
      vertex 15.2847 1.06252 0
      vertex 20 13.9 0
      vertex 15.421 1.01627 0
    endloop
  endfacet
  facet normal 0 0 -1
    outer loop
      vertex 15.1436 1.09059 0
      vertex 20 13.9 0
      vertex 15.2847 1.06252 0
    endloop
  endfacet
  facet normal 0 0 -1
    outer loop
      vertex 15 1.1 0
      vertex 20 13.9 0
      vertex 15.1436 1.09059 0
    endloop
  endfacet
  facet normal 0 0 -1
    outer loop
      vertex 14.8564 1.09059 0
      vertex 20 13.9 0
      vertex 15 1.1 0
    endloop
  endfacet
  facet normal 0 0 -1
    outer loop
      vertex 14.7153 1.06252 0
      vertex 20 13.9 0
      vertex 14.8564 1.09059 0
    endloop
  endfacet
  facet normal 0 0 -1
    outer loop
      vertex 14.579 1.01627 0
      vertex 20 13.9 0
      vertex 14.7153 1.06252 0
    endloop
  endfacet
  facet normal 0 0 -1
    outer loop
      vertex 14.45 0.952627 0
      vertex 20 13.9 0
      vertex 14.579 1.01627 0
    endloop
  endfacet
  facet normal 0 0 -1
    outer loop
      vertex 14.3304 0.872688 0
      vertex 20 13.9 0
      vertex 14.45 0.952627 0
    endloop
  endfacet
  facet normal 0 0 -1
    outer loop
      vertex 14.2222 0.777817 0
      vertex 20 13.9 0
      vertex 14.3304 0.872688 0
    endloop
  endfacet
  facet normal 0 0 -1
    outer loop
      vertex -14.2222 0.777817 0
      vertex 14.2222 0.777817 0
      vertex 14.1273 0.669637 0
    endloop
  endfacet
  facet normal 0 0 -1
    outer loop
      vertex -14.1273 0.669637 0
      vertex 14.1273 0.669637 0
      vertex 14.0474 0.549999 0
    endloop
  endfacet
  facet normal 0 0 -1
    outer loop
      vertex -14.0474 0.549999 0
      vertex 14.0474 0.549999 0
      vertex 13.9837 0.420951 0
    endloop
  endfacet
  facet normal -0 0 -1
    outer loop
      vertex 13.9375 -0.2847 0
      vertex -10.9 -6.18192 0
      vertex 13.9094 -0.143579 0
    endloop
  endfacet
  facet normal -0 0 -1
    outer loop
      vertex 13.9094 -0.143579 0
      vertex -10.9 -6.18192 0
      vertex 13.9 0 0
    endloop
  endfacet
  facet normal 0 0 -1
    outer loop
      vertex -10.9 -6.18192 0
      vertex 12.5 -9.21396 0
      vertex -10.9 -9.21396 0
    endloop
  endfacet
  facet normal -0 0 -1
    outer loop
      vertex 13.9 0 0
      vertex -10.9 -6.18192 0
      vertex 13.9094 0.143579 0
    endloop
  endfacet
  facet normal -0 0 -1
    outer loop
      vertex 13.9094 0.143579 0
      vertex -10.9 -6.18192 0
      vertex 13.9375 0.2847 0
    endloop
  endfacet
  facet normal 0 0 -1
    outer loop
      vertex -13.9375 0.2847 0
      vertex 13.9375 0.2847 0
      vertex -10.9 -6.18192 0
    endloop
  endfacet
  facet normal 0 0 -1
    outer loop
      vertex 13.9375 0.2847 0
      vertex -13.9375 0.2847 0
      vertex 13.9837 0.420951 0
    endloop
  endfacet
  facet normal 0 0 -1
    outer loop
      vertex -13.9 0 0
      vertex -10.9 -6.18192 0
      vertex -12.5 -6.18192 0
    endloop
  endfacet
  facet normal 0 0 -1
    outer loop
      vertex -13.9094 0.143579 0
      vertex -10.9 -6.18192 0
      vertex -13.9 0 0
    endloop
  endfacet
  facet normal 0 0 -1
    outer loop
      vertex -13.9375 0.2847 0
      vertex -10.9 -6.18192 0
      vertex -13.9094 0.143579 0
    endloop
  endfacet
  facet normal 0 0 -1
    outer loop
      vertex -13.9837 0.420951 0
      vertex 13.9837 0.420951 0
      vertex -13.9375 0.2847 0
    endloop
  endfacet
  facet normal 0 0 -1
    outer loop
      vertex -14.0474 0.549999 0
      vertex 13.9837 0.420951 0
      vertex -13.9837 0.420951 0
    endloop
  endfacet
  facet normal 0 0 -1
    outer loop
      vertex 14.0474 0.549999 0
      vertex -14.0474 0.549999 0
      vertex -14.1273 0.669637 0
    endloop
  endfacet
  facet normal 0 0 -1
    outer loop
      vertex 14.1273 0.669637 0
      vertex -14.1273 0.669637 0
      vertex -14.2222 0.777817 0
    endloop
  endfacet
  facet normal 0 0 -1
    outer loop
      vertex 14.2222 0.777817 0
      vertex -14.2222 0.777817 0
      vertex 20 13.9 0
    endloop
  endfacet
  facet normal 0 0 -1
    outer loop
      vertex -20 13.9 0
      vertex -14.2222 0.777817 0
      vertex -14.3304 0.872688 0
    endloop
  endfacet
  facet normal 0 0 -1
    outer loop
      vertex -20 13.9 0
      vertex -14.3304 0.872688 0
      vertex -14.45 0.952627 0
    endloop
  endfacet
  facet normal 0 0 -1
    outer loop
      vertex -20 13.9 0
      vertex -14.45 0.952627 0
      vertex -14.579 1.01627 0
    endloop
  endfacet
  facet normal 0 0 -1
    outer loop
      vertex -20 13.9 0
      vertex -14.579 1.01627 0
      vertex -14.7153 1.06252 0
    endloop
  endfacet
  facet normal 0 0 -1
    outer loop
      vertex -20 13.9 0
      vertex -14.7153 1.06252 0
      vertex -14.8564 1.09059 0
    endloop
  endfacet
  facet normal 0 0 -1
    outer loop
      vertex -20 13.9 0
      vertex -14.8564 1.09059 0
      vertex -15 1.1 0
    endloop
  endfacet
  facet normal 0 0 -1
    outer loop
      vertex -20 13.9 0
      vertex -15 1.1 0
      vertex -15.1436 1.09059 0
    endloop
  endfacet
  facet normal 0 0 -1
    outer loop
      vertex -20 13.9 0
      vertex -15.1436 1.09059 0
      vertex -15.2847 1.06252 0
    endloop
  endfacet
  facet normal 0 0 -1
    outer loop
      vertex -20 13.9 0
      vertex -15.2847 1.06252 0
      vertex -15.421 1.01627 0
    endloop
  endfacet
  facet normal 0 0 -1
    outer loop
      vertex -20 13.9 0
      vertex -16.1 0 0
      vertex -20 -13.9 0
    endloop
  endfacet
  facet normal 0 0 -1
    outer loop
      vertex -16.1 0 0
      vertex -20 13.9 0
      vertex -16.0906 0.143579 0
    endloop
  endfacet
  facet normal 0 0 -1
    outer loop
      vertex -14.2222 0.777817 0
      vertex -20 13.9 0
      vertex 20 13.9 0
    endloop
  endfacet
  facet normal 0 0 -1
    outer loop
      vertex -15.55 0.952627 0
      vertex -20 13.9 0
      vertex -15.421 1.01627 0
    endloop
  endfacet
  facet normal 0 0 -1
    outer loop
      vertex -15.6696 0.872688 0
      vertex -20 13.9 0
      vertex -15.55 0.952627 0
    endloop
  endfacet
  facet normal 0 0 -1
    outer loop
      vertex -15.7778 0.777817 0
      vertex -20 13.9 0
      vertex -15.6696 0.872688 0
    endloop
  endfacet
  facet normal 0 0 -1
    outer loop
      vertex -15.8727 0.669637 0
      vertex -20 13.9 0
      vertex -15.7778 0.777817 0
    endloop
  endfacet
  facet normal 0 0 -1
    outer loop
      vertex -15.9526 0.549999 0
      vertex -20 13.9 0
      vertex -15.8727 0.669637 0
    endloop
  endfacet
  facet normal 0 0 -1
    outer loop
      vertex -16.0163 0.420951 0
      vertex -20 13.9 0
      vertex -15.9526 0.549999 0
    endloop
  endfacet
  facet normal 0 0 -1
    outer loop
      vertex -16.0625 0.2847 0
      vertex -20 13.9 0
      vertex -16.0163 0.420951 0
    endloop
  endfacet
  facet normal 0 0 -1
    outer loop
      vertex -16.0906 0.143579 0
      vertex -20 13.9 0
      vertex -16.0625 0.2847 0
    endloop
  endfacet
  facet normal -1 0 0
    outer loop
      vertex -20 -13.9 0
      vertex -20 13.9 1.6
      vertex -20 13.9 0
    endloop
  endfacet
  facet normal -1 -0 0
    outer loop
      vertex -20 13.9 1.6
      vertex -20 -13.9 0
      vertex -20 -13.9 1.6
    endloop
  endfacet
  facet normal 0 1 -0
    outer loop
      vertex 20 13.9 0
      vertex -20 13.9 1.6
      vertex 20 13.9 1.6
    endloop
  endfacet
  facet normal 0 1 0
    outer loop
      vertex -20 13.9 1.6
      vertex 20 13.9 0
      vertex -20 13.9 0
    endloop
  endfacet
  facet normal 0 -1 0
    outer loop
      vertex -20 -13.9 0
      vertex 20 -13.9 1.6
      vertex -20 -13.9 1.6
    endloop
  endfacet
  facet normal 0 -1 -0
    outer loop
      vertex 20 -13.9 1.6
      vertex -20 -13.9 0
      vertex 20 -13.9 0
    endloop
  endfacet
  facet normal 1 0 0
    outer loop
      vertex 12.5 -11.3402 7.93532
      vertex 12.5 -11.2991 1.6
      vertex 12.5 -9.64268 1.6
    endloop
  endfacet
  facet normal 1 0 0
    outer loop
      vertex 12.5 -11.2991 1.6
      vertex 12.5 -11.3402 7.93532
      vertex 12.5 -12.8857 7.52121
    endloop
  endfacet
  facet normal 1 0 0
    outer loop
      vertex 12.5 -9.21396 0
      vertex 12.5 -10.5563 -1.17212
      vertex 12.5 -9.01085 -0.758009
    endloop
  endfacet
  facet normal 1 0 -0
    outer loop
      vertex 12.5 -10.5563 -1.17212
      vertex 12.5 -9.21396 0
      vertex 12.5 -10.8704 0
    endloop
  endfacet
  facet normal 0 -0.258816 0.965927
    outer loop
      vertex -12.5 -11.3402 7.93532
      vertex 12.5 -12.8857 7.52121
      vertex 12.5 -11.3402 7.93532
    endloop
  endfacet
  facet normal 0 -0.258816 0.965927
    outer loop
      vertex 12.5 -12.8857 7.52121
      vertex -12.5 -11.3402 7.93532
      vertex -12.5 -12.8857 7.52121
    endloop
  endfacet
  facet normal 0 0.258824 -0.965924
    outer loop
      vertex 12.5 -10.5563 -1.17212
      vertex -10.9 -9.01085 -0.758009
      vertex 12.5 -9.01085 -0.758009
    endloop
  endfacet
  facet normal 0 0.258824 -0.965924
    outer loop
      vertex -12.5 -10.5563 -1.17212
      vertex -10.9 -9.01085 -0.758009
      vertex 12.5 -10.5563 -1.17212
    endloop
  endfacet
  facet normal 3.59129e-06 0.258821 -0.965925
    outer loop
      vertex -12.5 -6.18192 0
      vertex -10.9 -9.01085 -0.758009
      vertex -12.5 -10.5563 -1.17212
    endloop
  endfacet
  facet normal 0 0.258819 -0.965926
    outer loop
      vertex -10.9 -9.01085 -0.758009
      vertex -12.5 -6.18192 0
      vertex -10.9 -6.18192 0
    endloop
  endfacet
  facet normal 0 0.258819 -0.965926
    outer loop
      vertex -10.9 -0.210644 1.6
      vertex -12.5 -0.210644 1.6
      vertex -10.9 8.18263 3.84897
    endloop
  endfacet
  facet normal 0 0.258819 -0.965926
    outer loop
      vertex -10.9 8.18263 3.84897
      vertex 12.5 9.72811 4.26308
      vertex 12.5 8.18263 3.84897
    endloop
  endfacet
  facet normal 0 0.258819 -0.965926
    outer loop
      vertex -10.9 8.18263 3.84897
      vertex -12.5 9.72811 4.26308
      vertex 12.5 9.72811 4.26308
    endloop
  endfacet
  facet normal -3.28337e-08 0.258819 -0.965926
    outer loop
      vertex -12.5 9.72811 4.26308
      vertex -10.9 8.18263 3.84897
      vertex -12.5 -0.210644 1.6
    endloop
  endfacet
  facet normal -1 0 0
    outer loop
      vertex -12.5 -10.5563 -1.17212
      vertex -12.5 -10.8704 0
      vertex -12.5 -6.18192 0
    endloop
  endfacet
  facet normal -1 0 0
    outer loop
      vertex -12.5 9.72811 4.26308
      vertex -12.5 7.21206 7.47119
      vertex -12.5 7.39874 12.9564
    endloop
  endfacet
  facet normal -1 0 0
    outer loop
      vertex -12.5 -0.210644 1.6
      vertex -12.5 7.21206 7.47119
      vertex -12.5 9.72811 4.26308
    endloop
  endfacet
  facet normal -1 0 0
    outer loop
      vertex -12.5 -0.210644 1.6
      vertex -12.5 -9.98142 2.86421
      vertex -12.5 7.21206 7.47119
    endloop
  endfacet
  facet normal -1 0 0
    outer loop
      vertex -12.5 -11.2991 1.6
      vertex -12.5 -9.98142 2.86421
      vertex -12.5 -0.210644 1.6
    endloop
  endfacet
  facet normal -1 0 0
    outer loop
      vertex -12.5 -12.8857 7.52121
      vertex -12.5 -9.98142 2.86421
      vertex -12.5 -11.2991 1.6
    endloop
  endfacet
  facet normal -1 0 0
    outer loop
      vertex -12.5 -9.98142 2.86421
      vertex -12.5 -12.8857 7.52121
      vertex -12.5 -11.3402 7.93532
    endloop
  endfacet
  facet normal -1 0 0
    outer loop
      vertex -12.5 7.39874 12.9564
      vertex -12.5 7.21206 7.47119
      vertex -12.5 5.85326 12.5423
    endloop
  endfacet
  facet normal 0 0.965927 0.258816
    outer loop
      vertex 12.5 -11.3402 7.93532
      vertex -10.9 -9.98142 2.86421
      vertex -12.5 -11.3402 7.93532
    endloop
  endfacet
  facet normal -2.95656e-08 0.965927 0.258816
    outer loop
      vertex 12.5 -9.64268 1.6
      vertex -10.9 -9.98142 2.86421
      vertex 12.5 -11.3402 7.93532
    endloop
  endfacet
  facet normal 0 0.965927 0.258816
    outer loop
      vertex -10.9 -9.98142 2.86421
      vertex 12.5 -9.64268 1.6
      vertex -10.9 -9.64268 1.6
    endloop
  endfacet
  facet normal 0 0.965927 0.258816
    outer loop
      vertex -12.5 -11.3402 7.93532
      vertex -10.9 -9.98142 2.86421
      vertex -12.5 -9.98142 2.86421
    endloop
  endfacet
  facet normal 0 0.965925 0.258822
    outer loop
      vertex 12.5 -9.01085 -0.758009
      vertex -10.9 -9.21396 0
      vertex 12.5 -9.21396 0
    endloop
  endfacet
  facet normal 0 0.965925 0.258822
    outer loop
      vertex -10.9 -9.21396 0
      vertex 12.5 -9.01085 -0.758009
      vertex -10.9 -9.01085 -0.758009
    endloop
  endfacet
  facet normal 0 -0.965919 -0.258843
    outer loop
      vertex -12.5 -10.5563 -1.17212
      vertex 12.5 -10.8704 0
      vertex -12.5 -10.8704 0
    endloop
  endfacet
  facet normal 0 -0.965919 -0.258843
    outer loop
      vertex 12.5 -10.8704 0
      vertex -12.5 -10.5563 -1.17212
      vertex 12.5 -10.5563 -1.17212
    endloop
  endfacet
  facet normal 0 -0.965925 -0.258822
    outer loop
      vertex -12.5 -11.2991 1.6
      vertex 12.5 -12.8857 7.52121
      vertex -12.5 -12.8857 7.52121
    endloop
  endfacet
  facet normal 0 -0.965925 -0.258822
    outer loop
      vertex 12.5 -12.8857 7.52121
      vertex -12.5 -11.2991 1.6
      vertex 12.5 -11.2991 1.6
    endloop
  endfacet
  facet normal 1 0 0
    outer loop
      vertex 12.5 7.39874 12.9564
      vertex 12.5 8.18263 3.84897
      vertex 12.5 9.72811 4.26308
    endloop
  endfacet
  facet normal 1 0 0
    outer loop
      vertex 12.5 8.18263 3.84897
      vertex 12.5 7.39874 12.9564
      vertex 12.5 5.85326 12.5423
    endloop
  endfacet
  facet normal 0 -0.258813 0.965927
    outer loop
      vertex -12.5 7.39874 12.9564
      vertex 12.5 5.85326 12.5423
      vertex 12.5 7.39874 12.9564
    endloop
  endfacet
  facet normal 0 -0.258813 0.965927
    outer loop
      vertex 12.5 5.85326 12.5423
      vertex -12.5 7.39874 12.9564
      vertex -12.5 5.85326 12.5423
    endloop
  endfacet
  facet normal 0 0.965926 0.258819
    outer loop
      vertex 12.5 9.72811 4.26308
      vertex -12.5 7.39874 12.9564
      vertex 12.5 7.39874 12.9564
    endloop
  endfacet
  facet normal 0 0.965926 0.258819
    outer loop
      vertex -12.5 7.39874 12.9564
      vertex 12.5 9.72811 4.26308
      vertex -12.5 9.72811 4.26308
    endloop
  endfacet
  facet normal -0 -0.965926 -0.258819
    outer loop
      vertex -10.9 7.21206 7.47119
      vertex -12.5 5.85326 12.5423
      vertex -12.5 7.21206 7.47119
    endloop
  endfacet
  facet normal 0 -0.965926 -0.258819
    outer loop
      vertex -12.5 5.85326 12.5423
      vertex -10.9 7.21206 7.47119
      vertex 12.5 5.85326 12.5423
    endloop
  endfacet
  facet normal -0 -0.965926 -0.258819
    outer loop
      vertex 12.5 8.18263 3.84897
      vertex -10.9 7.21206 7.47119
      vertex -10.9 8.18263 3.84897
    endloop
  endfacet
  facet normal -2.51819e-08 -0.965926 -0.258819
    outer loop
      vertex -10.9 7.21206 7.47119
      vertex 12.5 8.18263 3.84897
      vertex 12.5 5.85326 12.5423
    endloop
  endfacet
  facet normal 1 0 0
    outer loop
      vertex -10.9 -6.18192 0
      vertex -10.9 -9.21396 0
      vertex -10.9 -9.01085 -0.758009
    endloop
  endfacet
  facet normal 1 0 0
    outer loop
      vertex -10.9 7.21206 7.47119
      vertex -10.9 -0.210644 1.6
      vertex -10.9 8.18263 3.84897
    endloop
  endfacet
  facet normal 1 -0 0
    outer loop
      vertex -10.9 -9.98142 2.86421
      vertex -10.9 -0.210644 1.6
      vertex -10.9 7.21206 7.47119
    endloop
  endfacet
  facet normal 1 0 0
    outer loop
      vertex -10.9 -0.210644 1.6
      vertex -10.9 -9.98142 2.86421
      vertex -10.9 -9.64268 1.6
    endloop
  endfacet
  facet normal 0 -0.258819 0.965926
    outer loop
      vertex -12.5 7.21206 7.47119
      vertex -10.9 -9.98142 2.86421
      vertex -10.9 7.21206 7.47119
    endloop
  endfacet
  facet normal 0 -0.258819 0.965926
    outer loop
      vertex -10.9 -9.98142 2.86421
      vertex -12.5 7.21206 7.47119
      vertex -12.5 -9.98142 2.86421
    endloop
  endfacet
endsolid OpenSCAD_Model
