solid OpenSCAD_Model
  facet normal 0.995185 0.0980153 0
    outer loop
      vertex 41.9081 2.76709 6
      vertex 41.6407 5.4821 0
      vertex 41.6407 5.4821 6
    endloop
  endfacet
  facet normal 0.995185 0.0980153 0
    outer loop
      vertex 41.6407 5.4821 0
      vertex 41.9081 2.76709 6
      vertex 41.9081 2.76709 0
    endloop
  endfacet
  facet normal 0.986643 0.162895 0
    outer loop
      vertex 41.6407 5.4821 6
      vertex 41.193 8.19379 0
      vertex 41.193 8.19379 6
    endloop
  endfacet
  facet normal 0.986643 0.162895 0
    outer loop
      vertex 41.193 8.19379 0
      vertex 41.6407 5.4821 6
      vertex 41.6407 5.4821 0
    endloop
  endfacet
  facet normal 0.935895 0.35228 0
    outer loop
      vertex 39.7711 13.5005 6
      vertex 38.8029 16.0727 0
      vertex 38.8029 16.0727 6
    endloop
  endfacet
  facet normal 0.935895 0.35228 0
    outer loop
      vertex 38.8029 16.0727 0
      vertex 39.7711 13.5005 6
      vertex 39.7711 13.5005 0
    endloop
  endfacet
  facet normal 0.973877 0.227077 0
    outer loop
      vertex 41.193 8.19379 6
      vertex 40.5689 10.8704 0
      vertex 40.5689 10.8704 6
    endloop
  endfacet
  facet normal 0.973877 0.227077 0
    outer loop
      vertex 40.5689 10.8704 0
      vertex 41.193 8.19379 6
      vertex 41.193 8.19379 0
    endloop
  endfacet
  facet normal 0.729868 0.683588 0
    outer loop
      vertex 31.5773 27.6925 6
      vertex 29.6985 29.6985 0
      vertex 29.6985 29.6985 6
    endloop
  endfacet
  facet normal 0.729868 0.683588 0
    outer loop
      vertex 29.6985 29.6985 0
      vertex 31.5773 27.6925 6
      vertex 31.5773 27.6925 0
    endloop
  endfacet
  facet normal 0.986643 -0.162895 0
    outer loop
      vertex 41.193 -8.19379 6
      vertex 41.6407 -5.4821 0
      vertex 41.6407 -5.4821 6
    endloop
  endfacet
  facet normal 0.986643 -0.162895 0
    outer loop
      vertex 41.6407 -5.4821 0
      vertex 41.193 -8.19379 6
      vertex 41.193 -8.19379 0
    endloop
  endfacet
  facet normal 0.849198 -0.528075 0
    outer loop
      vertex 34.9217 -23.334 6
      vertex 36.3731 -21 0
      vertex 36.3731 -21 6
    endloop
  endfacet
  facet normal 0.849198 -0.528075 0
    outer loop
      vertex 36.3731 -21 0
      vertex 34.9217 -23.334 6
      vertex 34.9217 -23.334 0
    endloop
  endfacet
  facet normal 0.81284 0.582487 0
    outer loop
      vertex 34.9217 23.334 6
      vertex 33.3208 25.568 0
      vertex 33.3208 25.568 6
    endloop
  endfacet
  facet normal 0.81284 0.582487 0
    outer loop
      vertex 33.3208 25.568 0
      vertex 34.9217 23.334 6
      vertex 34.9217 23.334 0
    endloop
  endfacet
  facet normal 0.956944 0.290274 0
    outer loop
      vertex 40.5689 10.8704 6
      vertex 39.7711 13.5005 0
      vertex 39.7711 13.5005 6
    endloop
  endfacet
  facet normal 0.956944 0.290274 0
    outer loop
      vertex 39.7711 13.5005 0
      vertex 40.5689 10.8704 6
      vertex 40.5689 10.8704 0
    endloop
  endfacet
  facet normal 0.773016 -0.634386 0
    outer loop
      vertex 31.5773 -27.6925 6
      vertex 33.3208 -25.568 0
      vertex 33.3208 -25.568 6
    endloop
  endfacet
  facet normal 0.773016 -0.634386 0
    outer loop
      vertex 33.3208 -25.568 0
      vertex 31.5773 -27.6925 6
      vertex 31.5773 -27.6925 0
    endloop
  endfacet
  facet normal 0.634402 0.773003 -0
    outer loop
      vertex 27.6925 31.5773 0
      vertex 26.9842 32.1586 6
      vertex 27.6925 31.5773 6
    endloop
  endfacet
  facet normal 0.634402 0.773003 0
    outer loop
      vertex 26.9842 32.1586 6
      vertex 27.6925 31.5773 0
      vertex 26.9842 32.1586 0
    endloop
  endfacet
  facet normal 0 0 -1
    outer loop
      vertex 39.25 -2.59808 0
      vertex 39.4058 2.68134 0
      vertex 39.4058 -2.68134 0
    endloop
  endfacet
  facet normal 0 0 -1
    outer loop
      vertex 39.25 -2.59808 0
      vertex 39.25 2.59808 0
      vertex 39.4058 2.68134 0
    endloop
  endfacet
  facet normal 0 0 -1
    outer loop
      vertex 39.0833 -2.49441 0
      vertex 39.25 2.59808 0
      vertex 39.25 -2.59808 0
    endloop
  endfacet
  facet normal 0 0 -1
    outer loop
      vertex 39.0833 -2.49441 0
      vertex 39.0833 2.49441 0
      vertex 39.25 2.59808 0
    endloop
  endfacet
  facet normal 0 0 -1
    outer loop
      vertex 38.9237 -2.38006 0
      vertex 39.0833 2.49441 0
      vertex 39.0833 -2.49441 0
    endloop
  endfacet
  facet normal 0 0 -1
    outer loop
      vertex 38.9237 -2.38006 0
      vertex 38.9237 2.38006 0
      vertex 39.0833 2.49441 0
    endloop
  endfacet
  facet normal 0 0 -1
    outer loop
      vertex 38.772 -2.25552 0
      vertex 38.9237 2.38006 0
      vertex 38.9237 -2.38006 0
    endloop
  endfacet
  facet normal 0 0 -1
    outer loop
      vertex 38.772 -2.25552 0
      vertex 38.772 2.25552 0
      vertex 38.9237 2.38006 0
    endloop
  endfacet
  facet normal 0 0 -1
    outer loop
      vertex 38.6287 -2.12132 0
      vertex 38.772 2.25552 0
      vertex 38.772 -2.25552 0
    endloop
  endfacet
  facet normal 0 0 -1
    outer loop
      vertex 38.6287 -2.12132 0
      vertex 38.6287 2.12132 0
      vertex 38.772 2.25552 0
    endloop
  endfacet
  facet normal 0 0 -1
    outer loop
      vertex 38.4945 -1.97804 0
      vertex 38.6287 2.12132 0
      vertex 38.6287 -2.12132 0
    endloop
  endfacet
  facet normal 0 0 -1
    outer loop
      vertex 38.4945 -1.97804 0
      vertex 38.4945 1.97804 0
      vertex 38.6287 2.12132 0
    endloop
  endfacet
  facet normal 0 0 -1
    outer loop
      vertex 38.3699 -1.82628 0
      vertex 38.4945 1.97804 0
      vertex 38.4945 -1.97804 0
    endloop
  endfacet
  facet normal 0 0 -1
    outer loop
      vertex 38.3699 -1.82628 0
      vertex 38.3699 1.82628 0
      vertex 38.4945 1.97804 0
    endloop
  endfacet
  facet normal 0 0 -1
    outer loop
      vertex 38.2556 -1.66671 0
      vertex 38.3699 1.82628 0
      vertex 38.3699 -1.82628 0
    endloop
  endfacet
  facet normal 0 0 -1
    outer loop
      vertex 38.2556 -1.66671 0
      vertex 38.2556 1.66671 0
      vertex 38.3699 1.82628 0
    endloop
  endfacet
  facet normal 0 0 -1
    outer loop
      vertex 38.1519 -1.5 0
      vertex 38.2556 1.66671 0
      vertex 38.2556 -1.66671 0
    endloop
  endfacet
  facet normal 0 0 -1
    outer loop
      vertex 38.1519 -1.5 0
      vertex 38.1519 1.5 0
      vertex 38.2556 1.66671 0
    endloop
  endfacet
  facet normal 0 0 -1
    outer loop
      vertex 38.0594 -1.32687 0
      vertex 38.1519 1.5 0
      vertex 38.1519 -1.5 0
    endloop
  endfacet
  facet normal 0 0 -1
    outer loop
      vertex 38.0594 -1.32687 0
      vertex 38.0594 1.32687 0
      vertex 38.1519 1.5 0
    endloop
  endfacet
  facet normal 0 0 -1
    outer loop
      vertex 37.9784 -1.14805 0
      vertex 38.0594 1.32687 0
      vertex 38.0594 -1.32687 0
    endloop
  endfacet
  facet normal 0 0 -1
    outer loop
      vertex 37.9784 -1.14805 0
      vertex 37.9784 1.14805 0
      vertex 38.0594 1.32687 0
    endloop
  endfacet
  facet normal 0 0 -1
    outer loop
      vertex 37.9092 -0.964318 0
      vertex 37.9784 1.14805 0
      vertex 37.9784 -1.14805 0
    endloop
  endfacet
  facet normal 0 0 -1
    outer loop
      vertex 37.9092 -0.964318 0
      vertex 37.9092 0.964318 0
      vertex 37.9784 1.14805 0
    endloop
  endfacet
  facet normal 0 0 -1
    outer loop
      vertex 37.8522 -0.776457 0
      vertex 37.9092 0.964318 0
      vertex 37.9092 -0.964318 0
    endloop
  endfacet
  facet normal 0 0 -1
    outer loop
      vertex 37.8522 -0.776457 0
      vertex 37.8522 0.776457 0
      vertex 37.9092 0.964318 0
    endloop
  endfacet
  facet normal 0 0 -1
    outer loop
      vertex 37.8076 -0.585271 0
      vertex 37.8522 0.776457 0
      vertex 37.8522 -0.776457 0
    endloop
  endfacet
  facet normal 0 0 -1
    outer loop
      vertex 37.8076 -0.585271 0
      vertex 37.8076 0.585271 0
      vertex 37.8522 0.776457 0
    endloop
  endfacet
  facet normal 0 0 -1
    outer loop
      vertex 37.7757 -0.391578 0
      vertex 37.8076 0.585271 0
      vertex 37.8076 -0.585271 0
    endloop
  endfacet
  facet normal 0 0 -1
    outer loop
      vertex 37.7757 -0.391578 0
      vertex 37.7757 0.391578 0
      vertex 37.8076 0.585271 0
    endloop
  endfacet
  facet normal 0 0 -1
    outer loop
      vertex 37.7564 -0.196209 0
      vertex 37.7757 0.391578 0
      vertex 37.7757 -0.391578 0
    endloop
  endfacet
  facet normal 0 0 -1
    outer loop
      vertex 37.7564 -0.196209 0
      vertex 37.7564 0.196209 0
      vertex 37.7757 0.391578 0
    endloop
  endfacet
  facet normal 0 -0 -1
    outer loop
      vertex 37.7564 0.196209 0
      vertex 37.7564 -0.196209 0
      vertex 37.75 0 0
    endloop
  endfacet
  facet normal 0 0 -1
    outer loop
      vertex 43.7436 -0.196209 0
      vertex 43.7436 0.196209 0
      vertex 43.75 0 0
    endloop
  endfacet
  facet normal 0 0 -1
    outer loop
      vertex 43.7243 -0.391578 0
      vertex 43.7436 0.196209 0
      vertex 43.7436 -0.196209 0
    endloop
  endfacet
  facet normal 0 0 -1
    outer loop
      vertex 43.7243 -0.391578 0
      vertex 43.7243 0.391578 0
      vertex 43.7436 0.196209 0
    endloop
  endfacet
  facet normal 0 0 -1
    outer loop
      vertex 43.6924 -0.585271 0
      vertex 43.7243 0.391578 0
      vertex 43.7243 -0.391578 0
    endloop
  endfacet
  facet normal 0 0 -1
    outer loop
      vertex 43.6924 -0.585271 0
      vertex 43.6924 0.585271 0
      vertex 43.7243 0.391578 0
    endloop
  endfacet
  facet normal 0 0 -1
    outer loop
      vertex 43.6478 -0.776457 0
      vertex 43.6924 0.585271 0
      vertex 43.6924 -0.585271 0
    endloop
  endfacet
  facet normal 0 0 -1
    outer loop
      vertex 43.6478 -0.776457 0
      vertex 43.6478 0.776457 0
      vertex 43.6924 0.585271 0
    endloop
  endfacet
  facet normal 0 0 -1
    outer loop
      vertex 43.5908 -0.964318 0
      vertex 43.6478 0.776457 0
      vertex 43.6478 -0.776457 0
    endloop
  endfacet
  facet normal 0 0 -1
    outer loop
      vertex 43.5908 -0.964318 0
      vertex 43.5908 0.964318 0
      vertex 43.6478 0.776457 0
    endloop
  endfacet
  facet normal 0 0 -1
    outer loop
      vertex 43.5216 -1.14805 0
      vertex 43.5908 0.964318 0
      vertex 43.5908 -0.964318 0
    endloop
  endfacet
  facet normal 0 0 -1
    outer loop
      vertex 43.5216 -1.14805 0
      vertex 43.5216 1.14805 0
      vertex 43.5908 0.964318 0
    endloop
  endfacet
  facet normal 0 0 -1
    outer loop
      vertex 43.4406 -1.32687 0
      vertex 43.5216 1.14805 0
      vertex 43.5216 -1.14805 0
    endloop
  endfacet
  facet normal 0 0 -1
    outer loop
      vertex 43.4406 -1.32687 0
      vertex 43.4406 1.32687 0
      vertex 43.5216 1.14805 0
    endloop
  endfacet
  facet normal 0 0 -1
    outer loop
      vertex 43.3481 -1.5 0
      vertex 43.4406 1.32687 0
      vertex 43.4406 -1.32687 0
    endloop
  endfacet
  facet normal 0 0 -1
    outer loop
      vertex 43.3481 -1.5 0
      vertex 43.3481 1.5 0
      vertex 43.4406 1.32687 0
    endloop
  endfacet
  facet normal 0 0 -1
    outer loop
      vertex 43.2444 -1.66671 0
      vertex 43.3481 1.5 0
      vertex 43.3481 -1.5 0
    endloop
  endfacet
  facet normal 0 0 -1
    outer loop
      vertex 43.2444 -1.66671 0
      vertex 43.2444 1.66671 0
      vertex 43.3481 1.5 0
    endloop
  endfacet
  facet normal 0 0 -1
    outer loop
      vertex 43.1301 -1.82628 0
      vertex 43.2444 1.66671 0
      vertex 43.2444 -1.66671 0
    endloop
  endfacet
  facet normal 0 0 -1
    outer loop
      vertex 43.1301 -1.82628 0
      vertex 43.1301 1.82628 0
      vertex 43.2444 1.66671 0
    endloop
  endfacet
  facet normal 0 0 -1
    outer loop
      vertex 43.0055 -1.97804 0
      vertex 43.1301 1.82628 0
      vertex 43.1301 -1.82628 0
    endloop
  endfacet
  facet normal 0 0 -1
    outer loop
      vertex 43.0055 -1.97804 0
      vertex 43.0055 1.97804 0
      vertex 43.1301 1.82628 0
    endloop
  endfacet
  facet normal 0 0 -1
    outer loop
      vertex 42.8713 -2.12132 0
      vertex 43.0055 1.97804 0
      vertex 43.0055 -1.97804 0
    endloop
  endfacet
  facet normal 0 0 -1
    outer loop
      vertex 42.8713 -2.12132 0
      vertex 42.8713 2.12132 0
      vertex 43.0055 1.97804 0
    endloop
  endfacet
  facet normal 0 0 -1
    outer loop
      vertex 42.728 -2.25552 0
      vertex 42.8713 2.12132 0
      vertex 42.8713 -2.12132 0
    endloop
  endfacet
  facet normal 0 0 -1
    outer loop
      vertex 42.728 -2.25552 0
      vertex 42.728 2.25552 0
      vertex 42.8713 2.12132 0
    endloop
  endfacet
  facet normal 0 0 -1
    outer loop
      vertex 42.5763 -2.38006 0
      vertex 42.728 2.25552 0
      vertex 42.728 -2.25552 0
    endloop
  endfacet
  facet normal 0 0 -1
    outer loop
      vertex 42.5763 -2.38006 0
      vertex 42.5763 2.38006 0
      vertex 42.728 2.25552 0
    endloop
  endfacet
  facet normal 0 0 -1
    outer loop
      vertex 42.4167 -2.49441 0
      vertex 42.5763 2.38006 0
      vertex 42.5763 -2.38006 0
    endloop
  endfacet
  facet normal 0 0 -1
    outer loop
      vertex 42.4167 -2.49441 0
      vertex 42.4167 2.49441 0
      vertex 42.5763 2.38006 0
    endloop
  endfacet
  facet normal 0 0 -1
    outer loop
      vertex 42.25 -2.59808 0
      vertex 42.4167 2.49441 0
      vertex 42.4167 -2.49441 0
    endloop
  endfacet
  facet normal 0 0 -1
    outer loop
      vertex 42.25 -2.59808 0
      vertex 42.25 2.59808 0
      vertex 42.4167 2.49441 0
    endloop
  endfacet
  facet normal 0 0 -1
    outer loop
      vertex 42.0769 -2.69062 0
      vertex 42.25 2.59808 0
      vertex 42.25 -2.59808 0
    endloop
  endfacet
  facet normal 0 0 -1
    outer loop
      vertex 42.0769 -2.69062 0
      vertex 42.0769 2.69062 0
      vertex 42.25 2.59808 0
    endloop
  endfacet
  facet normal 0 0 -1
    outer loop
      vertex 41.9081 -2.76709 0
      vertex 42.0769 2.69062 0
      vertex 42.0769 -2.69062 0
    endloop
  endfacet
  facet normal 0 0 -1
    outer loop
      vertex 41.9081 -2.76709 0
      vertex 41.9081 2.76709 0
      vertex 42.0769 2.69062 0
    endloop
  endfacet
  facet normal 0 0 -1
    outer loop
      vertex 39.4058 -2.68134 0
      vertex 41.9081 -2.76709 0
      vertex 41.6407 -5.4821 0
    endloop
  endfacet
  facet normal 0 0 -1
    outer loop
      vertex 41.9081 -2.76709 0
      vertex 39.4058 -2.68134 0
      vertex 41.9081 2.76709 0
    endloop
  endfacet
  facet normal 0 0 -1
    outer loop
      vertex 39.1621 -5.15578 0
      vertex 41.6407 -5.4821 0
      vertex 41.193 -8.19379 0
    endloop
  endfacet
  facet normal 0 0 -1
    outer loop
      vertex 39.4058 2.68134 0
      vertex 41.9081 2.76709 0
      vertex 39.4058 -2.68134 0
    endloop
  endfacet
  facet normal 0 0 -1
    outer loop
      vertex 38.741 -7.70607 0
      vertex 41.193 -8.19379 0
      vertex 40.5689 -10.8704 0
    endloop
  endfacet
  facet normal -0 0 -1
    outer loop
      vertex 41.9081 2.76709 0
      vertex 39.4058 2.68134 0
      vertex 41.6407 5.4821 0
    endloop
  endfacet
  facet normal 0 0 -1
    outer loop
      vertex 38.1541 -10.2234 0
      vertex 40.5689 -10.8704 0
      vertex 39.7711 -13.5005 0
    endloop
  endfacet
  facet normal 0 0 -1
    outer loop
      vertex 39.1621 5.15578 0
      vertex 41.6407 5.4821 0
      vertex 39.4058 2.68134 0
    endloop
  endfacet
  facet normal -0 0 -1
    outer loop
      vertex 41.6407 5.4821 0
      vertex 39.1621 5.15578 0
      vertex 41.193 8.19379 0
    endloop
  endfacet
  facet normal 0 0 -1
    outer loop
      vertex 41.6407 -5.4821 0
      vertex 39.1621 -5.15578 0
      vertex 39.4058 -2.68134 0
    endloop
  endfacet
  facet normal 0 0 -1
    outer loop
      vertex 37.4037 -12.6969 0
      vertex 39.7711 -13.5005 0
      vertex 38.8029 -16.0727 0
    endloop
  endfacet
  facet normal 0 0 -1
    outer loop
      vertex 41.193 -8.19379 0
      vertex 38.741 -7.70607 0
      vertex 39.1621 -5.15578 0
    endloop
  endfacet
  facet normal 0 0 -1
    outer loop
      vertex 40.5689 -10.8704 0
      vertex 38.1541 -10.2234 0
      vertex 38.741 -7.70607 0
    endloop
  endfacet
  facet normal 0 0 -1
    outer loop
      vertex 36.4932 -15.116 0
      vertex 38.8029 -16.0727 0
      vertex 37.6687 -18.5761 0
    endloop
  endfacet
  facet normal 0 0 -1
    outer loop
      vertex 39.7711 -13.5005 0
      vertex 37.4037 -12.6969 0
      vertex 38.1541 -10.2234 0
    endloop
  endfacet
  facet normal 0 0 -1
    outer loop
      vertex 38.8029 -16.0727 0
      vertex 36.4932 -15.116 0
      vertex 37.4037 -12.6969 0
    endloop
  endfacet
  facet normal 0 0 -1
    outer loop
      vertex 35.4265 -17.4704 0
      vertex 37.6687 -18.5761 0
      vertex 36.3731 -21 0
    endloop
  endfacet
  facet normal 0 0 -1
    outer loop
      vertex 37.6687 -18.5761 0
      vertex 35.4265 -17.4704 0
      vertex 36.4932 -15.116 0
    endloop
  endfacet
  facet normal 0 0 -1
    outer loop
      vertex 34.208 -19.75 0
      vertex 36.3731 -21 0
      vertex 34.9217 -23.334 0
    endloop
  endfacet
  facet normal 0 0 -1
    outer loop
      vertex 36.3731 -21 0
      vertex 34.208 -19.75 0
      vertex 35.4265 -17.4704 0
    endloop
  endfacet
  facet normal 0 0 -1
    outer loop
      vertex 32.843 -21.945 0
      vertex 34.9217 -23.334 0
      vertex 33.3208 -25.568 0
    endloop
  endfacet
  facet normal 0 0 -1
    outer loop
      vertex 34.9217 -23.334 0
      vertex 32.843 -21.945 0
      vertex 34.208 -19.75 0
    endloop
  endfacet
  facet normal 0 0 -1
    outer loop
      vertex 31.3375 -24.0461 0
      vertex 33.3208 -25.568 0
      vertex 31.5773 -27.6925 0
    endloop
  endfacet
  facet normal 0 0 -1
    outer loop
      vertex 33.3208 -25.568 0
      vertex 31.3375 -24.0461 0
      vertex 32.843 -21.945 0
    endloop
  endfacet
  facet normal 0 0 -1
    outer loop
      vertex 29.6977 -26.0442 0
      vertex 31.5773 -27.6925 0
      vertex 29.6985 -29.6985 0
    endloop
  endfacet
  facet normal 0 0 -1
    outer loop
      vertex 31.5773 -27.6925 0
      vertex 29.6977 -26.0442 0
      vertex 31.3375 -24.0461 0
    endloop
  endfacet
  facet normal 0 0 -1
    outer loop
      vertex 29.6985 -29.6985 0
      vertex 27.9307 -27.9307 0
      vertex 29.6977 -26.0442 0
    endloop
  endfacet
  facet normal 0 0 -1
    outer loop
      vertex 27.6925 -31.5773 0
      vertex 27.9307 -27.9307 0
      vertex 29.6985 -29.6985 0
    endloop
  endfacet
  facet normal 0 0 -1
    outer loop
      vertex 26.0442 -29.6977 0
      vertex 27.6925 -31.5773 0
      vertex 26.9842 -32.1586 0
    endloop
  endfacet
  facet normal 0 0 -1
    outer loop
      vertex 27.6925 -31.5773 0
      vertex 26.0442 -29.6977 0
      vertex 27.9307 -27.9307 0
    endloop
  endfacet
  facet normal 0 -0 -1
    outer loop
      vertex 26.0442 -29.6977 0
      vertex 26.9842 -32.1586 0
      vertex 25.378 -30.2444 0
    endloop
  endfacet
  facet normal 0 0 -1
    outer loop
      vertex 38.741 7.70607 0
      vertex 41.193 8.19379 0
      vertex 39.1621 5.15578 0
    endloop
  endfacet
  facet normal -0 0 -1
    outer loop
      vertex 41.193 8.19379 0
      vertex 38.741 7.70607 0
      vertex 40.5689 10.8704 0
    endloop
  endfacet
  facet normal 0 0 -1
    outer loop
      vertex 38.1541 10.2234 0
      vertex 40.5689 10.8704 0
      vertex 38.741 7.70607 0
    endloop
  endfacet
  facet normal -0 0 -1
    outer loop
      vertex 40.5689 10.8704 0
      vertex 38.1541 10.2234 0
      vertex 39.7711 13.5005 0
    endloop
  endfacet
  facet normal 0 0 -1
    outer loop
      vertex 37.4037 12.6969 0
      vertex 39.7711 13.5005 0
      vertex 38.1541 10.2234 0
    endloop
  endfacet
  facet normal -0 0 -1
    outer loop
      vertex 39.7711 13.5005 0
      vertex 37.4037 12.6969 0
      vertex 38.8029 16.0727 0
    endloop
  endfacet
  facet normal 0 0 -1
    outer loop
      vertex 36.4932 15.116 0
      vertex 38.8029 16.0727 0
      vertex 37.4037 12.6969 0
    endloop
  endfacet
  facet normal -0 0 -1
    outer loop
      vertex 38.8029 16.0727 0
      vertex 36.4932 15.116 0
      vertex 37.6687 18.5761 0
    endloop
  endfacet
  facet normal 0 0 -1
    outer loop
      vertex 35.4265 17.4704 0
      vertex 37.6687 18.5761 0
      vertex 36.4932 15.116 0
    endloop
  endfacet
  facet normal -0 0 -1
    outer loop
      vertex 37.6687 18.5761 0
      vertex 35.4265 17.4704 0
      vertex 36.3731 21 0
    endloop
  endfacet
  facet normal 0 0 -1
    outer loop
      vertex 34.208 19.75 0
      vertex 36.3731 21 0
      vertex 35.4265 17.4704 0
    endloop
  endfacet
  facet normal -0 0 -1
    outer loop
      vertex 36.3731 21 0
      vertex 34.208 19.75 0
      vertex 34.9217 23.334 0
    endloop
  endfacet
  facet normal 0 0 -1
    outer loop
      vertex 32.843 21.945 0
      vertex 34.9217 23.334 0
      vertex 34.208 19.75 0
    endloop
  endfacet
  facet normal -0 0 -1
    outer loop
      vertex 34.9217 23.334 0
      vertex 32.843 21.945 0
      vertex 33.3208 25.568 0
    endloop
  endfacet
  facet normal 0 0 -1
    outer loop
      vertex 31.3375 24.0461 0
      vertex 33.3208 25.568 0
      vertex 32.843 21.945 0
    endloop
  endfacet
  facet normal -0 0 -1
    outer loop
      vertex 33.3208 25.568 0
      vertex 31.3375 24.0461 0
      vertex 31.5773 27.6925 0
    endloop
  endfacet
  facet normal 0 0 -1
    outer loop
      vertex 29.6977 26.0442 0
      vertex 31.5773 27.6925 0
      vertex 31.3375 24.0461 0
    endloop
  endfacet
  facet normal -0 0 -1
    outer loop
      vertex 31.5773 27.6925 0
      vertex 29.6977 26.0442 0
      vertex 29.6985 29.6985 0
    endloop
  endfacet
  facet normal 0 0 -1
    outer loop
      vertex 27.9307 27.9307 0
      vertex 29.6985 29.6985 0
      vertex 29.6977 26.0442 0
    endloop
  endfacet
  facet normal 0 0 -1
    outer loop
      vertex 27.9307 27.9307 0
      vertex 27.6925 31.5773 0
      vertex 29.6985 29.6985 0
    endloop
  endfacet
  facet normal 0 0 -1
    outer loop
      vertex 26.0442 29.6977 0
      vertex 27.6925 31.5773 0
      vertex 27.9307 27.9307 0
    endloop
  endfacet
  facet normal -0 0 -1
    outer loop
      vertex 27.6925 31.5773 0
      vertex 26.0442 29.6977 0
      vertex 26.9842 32.1586 0
    endloop
  endfacet
  facet normal 0 0 -1
    outer loop
      vertex 26.9842 32.1586 0
      vertex 26.0442 29.6977 0
      vertex 25.378 30.2444 0
    endloop
  endfacet
  facet normal 0.773016 0.634386 0
    outer loop
      vertex 33.3208 25.568 6
      vertex 31.5773 27.6925 0
      vertex 31.5773 27.6925 6
    endloop
  endfacet
  facet normal 0.773016 0.634386 0
    outer loop
      vertex 31.5773 27.6925 0
      vertex 33.3208 25.568 6
      vertex 33.3208 25.568 0
    endloop
  endfacet
  facet normal 0.995185 -0.0980153 0
    outer loop
      vertex 41.6407 -5.4821 6
      vertex 41.9081 -2.76709 0
      vertex 41.9081 -2.76709 6
    endloop
  endfacet
  facet normal 0.995185 -0.0980153 0
    outer loop
      vertex 41.9081 -2.76709 0
      vertex 41.6407 -5.4821 6
      vertex 41.6407 -5.4821 0
    endloop
  endfacet
  facet normal 0.881921 0.471396 0
    outer loop
      vertex 37.6687 18.5761 6
      vertex 36.3731 21 0
      vertex 36.3731 21 6
    endloop
  endfacet
  facet normal 0.881921 0.471396 0
    outer loop
      vertex 36.3731 21 0
      vertex 37.6687 18.5761 6
      vertex 37.6687 18.5761 0
    endloop
  endfacet
  facet normal 0.729868 -0.683588 0
    outer loop
      vertex 29.6985 -29.6985 6
      vertex 31.5773 -27.6925 0
      vertex 31.5773 -27.6925 6
    endloop
  endfacet
  facet normal 0.729868 -0.683588 0
    outer loop
      vertex 31.5773 -27.6925 0
      vertex 29.6985 -29.6985 6
      vertex 29.6985 -29.6985 0
    endloop
  endfacet
  facet normal 0.935895 -0.35228 0
    outer loop
      vertex 38.8029 -16.0727 6
      vertex 39.7711 -13.5005 0
      vertex 39.7711 -13.5005 6
    endloop
  endfacet
  facet normal 0.935895 -0.35228 0
    outer loop
      vertex 39.7711 -13.5005 0
      vertex 38.8029 -16.0727 6
      vertex 38.8029 -16.0727 0
    endloop
  endfacet
  facet normal 0.849198 0.528075 0
    outer loop
      vertex 36.3731 21 6
      vertex 34.9217 23.334 0
      vertex 34.9217 23.334 6
    endloop
  endfacet
  facet normal 0.849198 0.528075 0
    outer loop
      vertex 34.9217 23.334 0
      vertex 36.3731 21 6
      vertex 36.3731 21 0
    endloop
  endfacet
  facet normal 0.973877 -0.227077 0
    outer loop
      vertex 40.5689 -10.8704 6
      vertex 41.193 -8.19379 0
      vertex 41.193 -8.19379 6
    endloop
  endfacet
  facet normal 0.973877 -0.227077 0
    outer loop
      vertex 41.193 -8.19379 0
      vertex 40.5689 -10.8704 6
      vertex 40.5689 -10.8704 0
    endloop
  endfacet
  facet normal 0.910874 -0.412684 0
    outer loop
      vertex 37.6687 -18.5761 6
      vertex 38.8029 -16.0727 0
      vertex 38.8029 -16.0727 6
    endloop
  endfacet
  facet normal 0.910874 -0.412684 0
    outer loop
      vertex 38.8029 -16.0727 0
      vertex 37.6687 -18.5761 6
      vertex 37.6687 -18.5761 0
    endloop
  endfacet
  facet normal 0.910874 0.412684 0
    outer loop
      vertex 38.8029 16.0727 6
      vertex 37.6687 18.5761 0
      vertex 37.6687 18.5761 6
    endloop
  endfacet
  facet normal 0.910874 0.412684 0
    outer loop
      vertex 37.6687 18.5761 0
      vertex 38.8029 16.0727 6
      vertex 38.8029 16.0727 0
    endloop
  endfacet
  facet normal 0.683588 0.729868 -0
    outer loop
      vertex 29.6985 29.6985 0
      vertex 27.6925 31.5773 6
      vertex 29.6985 29.6985 6
    endloop
  endfacet
  facet normal 0.683588 0.729868 0
    outer loop
      vertex 27.6925 31.5773 6
      vertex 29.6985 29.6985 0
      vertex 27.6925 31.5773 0
    endloop
  endfacet
  facet normal 0.81284 -0.582487 0
    outer loop
      vertex 33.3208 -25.568 6
      vertex 34.9217 -23.334 0
      vertex 34.9217 -23.334 6
    endloop
  endfacet
  facet normal 0.81284 -0.582487 0
    outer loop
      vertex 34.9217 -23.334 0
      vertex 33.3208 -25.568 6
      vertex 33.3208 -25.568 0
    endloop
  endfacet
  facet normal 0.881921 -0.471396 0
    outer loop
      vertex 36.3731 -21 6
      vertex 37.6687 -18.5761 0
      vertex 37.6687 -18.5761 6
    endloop
  endfacet
  facet normal 0.881921 -0.471396 0
    outer loop
      vertex 37.6687 -18.5761 0
      vertex 36.3731 -21 6
      vertex 36.3731 -21 0
    endloop
  endfacet
  facet normal 0.634402 -0.773003 0
    outer loop
      vertex 26.9842 -32.1586 0
      vertex 27.6925 -31.5773 6
      vertex 26.9842 -32.1586 6
    endloop
  endfacet
  facet normal 0.634402 -0.773003 0
    outer loop
      vertex 27.6925 -31.5773 6
      vertex 26.9842 -32.1586 0
      vertex 27.6925 -31.5773 0
    endloop
  endfacet
  facet normal 0.956944 -0.290274 0
    outer loop
      vertex 39.7711 -13.5005 6
      vertex 40.5689 -10.8704 0
      vertex 40.5689 -10.8704 6
    endloop
  endfacet
  facet normal 0.956944 -0.290274 0
    outer loop
      vertex 40.5689 -10.8704 0
      vertex 39.7711 -13.5005 6
      vertex 39.7711 -13.5005 0
    endloop
  endfacet
  facet normal -0 0 1
    outer loop
      vertex 39.25 2.59808 6
      vertex 39.4058 -2.68134 6
      vertex 39.4058 2.68134 6
    endloop
  endfacet
  facet normal 0 0 1
    outer loop
      vertex 39.25 2.59808 6
      vertex 39.25 -2.59808 6
      vertex 39.4058 -2.68134 6
    endloop
  endfacet
  facet normal -0 0 1
    outer loop
      vertex 39.0833 2.49441 6
      vertex 39.25 -2.59808 6
      vertex 39.25 2.59808 6
    endloop
  endfacet
  facet normal 0 0 1
    outer loop
      vertex 39.0833 2.49441 6
      vertex 39.0833 -2.49441 6
      vertex 39.25 -2.59808 6
    endloop
  endfacet
  facet normal -0 0 1
    outer loop
      vertex 38.9237 2.38006 6
      vertex 39.0833 -2.49441 6
      vertex 39.0833 2.49441 6
    endloop
  endfacet
  facet normal 0 0 1
    outer loop
      vertex 38.9237 2.38006 6
      vertex 38.9237 -2.38006 6
      vertex 39.0833 -2.49441 6
    endloop
  endfacet
  facet normal -0 0 1
    outer loop
      vertex 38.772 2.25552 6
      vertex 38.9237 -2.38006 6
      vertex 38.9237 2.38006 6
    endloop
  endfacet
  facet normal 0 0 1
    outer loop
      vertex 38.772 2.25552 6
      vertex 38.772 -2.25552 6
      vertex 38.9237 -2.38006 6
    endloop
  endfacet
  facet normal -0 0 1
    outer loop
      vertex 38.6287 2.12132 6
      vertex 38.772 -2.25552 6
      vertex 38.772 2.25552 6
    endloop
  endfacet
  facet normal 0 0 1
    outer loop
      vertex 38.6287 2.12132 6
      vertex 38.6287 -2.12132 6
      vertex 38.772 -2.25552 6
    endloop
  endfacet
  facet normal -0 0 1
    outer loop
      vertex 38.4945 1.97804 6
      vertex 38.6287 -2.12132 6
      vertex 38.6287 2.12132 6
    endloop
  endfacet
  facet normal 0 0 1
    outer loop
      vertex 38.4945 1.97804 6
      vertex 38.4945 -1.97804 6
      vertex 38.6287 -2.12132 6
    endloop
  endfacet
  facet normal -0 0 1
    outer loop
      vertex 38.3699 1.82628 6
      vertex 38.4945 -1.97804 6
      vertex 38.4945 1.97804 6
    endloop
  endfacet
  facet normal 0 0 1
    outer loop
      vertex 38.3699 1.82628 6
      vertex 38.3699 -1.82628 6
      vertex 38.4945 -1.97804 6
    endloop
  endfacet
  facet normal -0 0 1
    outer loop
      vertex 38.2556 1.66671 6
      vertex 38.3699 -1.82628 6
      vertex 38.3699 1.82628 6
    endloop
  endfacet
  facet normal 0 0 1
    outer loop
      vertex 38.2556 1.66671 6
      vertex 38.2556 -1.66671 6
      vertex 38.3699 -1.82628 6
    endloop
  endfacet
  facet normal -0 0 1
    outer loop
      vertex 38.1519 1.5 6
      vertex 38.2556 -1.66671 6
      vertex 38.2556 1.66671 6
    endloop
  endfacet
  facet normal 0 0 1
    outer loop
      vertex 38.1519 1.5 6
      vertex 38.1519 -1.5 6
      vertex 38.2556 -1.66671 6
    endloop
  endfacet
  facet normal -0 0 1
    outer loop
      vertex 38.0594 1.32687 6
      vertex 38.1519 -1.5 6
      vertex 38.1519 1.5 6
    endloop
  endfacet
  facet normal 0 0 1
    outer loop
      vertex 38.0594 1.32687 6
      vertex 38.0594 -1.32687 6
      vertex 38.1519 -1.5 6
    endloop
  endfacet
  facet normal -0 0 1
    outer loop
      vertex 37.9784 1.14805 6
      vertex 38.0594 -1.32687 6
      vertex 38.0594 1.32687 6
    endloop
  endfacet
  facet normal 0 0 1
    outer loop
      vertex 37.9784 1.14805 6
      vertex 37.9784 -1.14805 6
      vertex 38.0594 -1.32687 6
    endloop
  endfacet
  facet normal -0 0 1
    outer loop
      vertex 37.9092 0.964318 6
      vertex 37.9784 -1.14805 6
      vertex 37.9784 1.14805 6
    endloop
  endfacet
  facet normal 0 0 1
    outer loop
      vertex 37.9092 0.964318 6
      vertex 37.9092 -0.964318 6
      vertex 37.9784 -1.14805 6
    endloop
  endfacet
  facet normal -0 0 1
    outer loop
      vertex 37.8522 0.776457 6
      vertex 37.9092 -0.964318 6
      vertex 37.9092 0.964318 6
    endloop
  endfacet
  facet normal 0 0 1
    outer loop
      vertex 37.8522 0.776457 6
      vertex 37.8522 -0.776457 6
      vertex 37.9092 -0.964318 6
    endloop
  endfacet
  facet normal -0 0 1
    outer loop
      vertex 37.8076 0.585271 6
      vertex 37.8522 -0.776457 6
      vertex 37.8522 0.776457 6
    endloop
  endfacet
  facet normal 0 0 1
    outer loop
      vertex 37.8076 0.585271 6
      vertex 37.8076 -0.585271 6
      vertex 37.8522 -0.776457 6
    endloop
  endfacet
  facet normal -0 0 1
    outer loop
      vertex 37.7757 0.391578 6
      vertex 37.8076 -0.585271 6
      vertex 37.8076 0.585271 6
    endloop
  endfacet
  facet normal 0 0 1
    outer loop
      vertex 37.7757 0.391578 6
      vertex 37.7757 -0.391578 6
      vertex 37.8076 -0.585271 6
    endloop
  endfacet
  facet normal -0 0 1
    outer loop
      vertex 37.7564 0.196209 6
      vertex 37.7757 -0.391578 6
      vertex 37.7757 0.391578 6
    endloop
  endfacet
  facet normal 0 0 1
    outer loop
      vertex 37.7564 0.196209 6
      vertex 37.7564 -0.196209 6
      vertex 37.7757 -0.391578 6
    endloop
  endfacet
  facet normal 0 -0 1
    outer loop
      vertex 37.7564 -0.196209 6
      vertex 37.7564 0.196209 6
      vertex 37.75 0 6
    endloop
  endfacet
  facet normal 0 0 1
    outer loop
      vertex 43.7436 0.196209 6
      vertex 43.7436 -0.196209 6
      vertex 43.75 0 6
    endloop
  endfacet
  facet normal 0 0 1
    outer loop
      vertex 43.7243 0.391578 6
      vertex 43.7436 -0.196209 6
      vertex 43.7436 0.196209 6
    endloop
  endfacet
  facet normal 0 0 1
    outer loop
      vertex 43.7243 0.391578 6
      vertex 43.7243 -0.391578 6
      vertex 43.7436 -0.196209 6
    endloop
  endfacet
  facet normal 0 0 1
    outer loop
      vertex 43.6924 0.585271 6
      vertex 43.7243 -0.391578 6
      vertex 43.7243 0.391578 6
    endloop
  endfacet
  facet normal 0 0 1
    outer loop
      vertex 43.6924 0.585271 6
      vertex 43.6924 -0.585271 6
      vertex 43.7243 -0.391578 6
    endloop
  endfacet
  facet normal 0 0 1
    outer loop
      vertex 43.6478 0.776457 6
      vertex 43.6924 -0.585271 6
      vertex 43.6924 0.585271 6
    endloop
  endfacet
  facet normal 0 0 1
    outer loop
      vertex 43.6478 0.776457 6
      vertex 43.6478 -0.776457 6
      vertex 43.6924 -0.585271 6
    endloop
  endfacet
  facet normal 0 0 1
    outer loop
      vertex 43.5908 0.964318 6
      vertex 43.6478 -0.776457 6
      vertex 43.6478 0.776457 6
    endloop
  endfacet
  facet normal 0 0 1
    outer loop
      vertex 43.5908 0.964318 6
      vertex 43.5908 -0.964318 6
      vertex 43.6478 -0.776457 6
    endloop
  endfacet
  facet normal 0 0 1
    outer loop
      vertex 43.5216 1.14805 6
      vertex 43.5908 -0.964318 6
      vertex 43.5908 0.964318 6
    endloop
  endfacet
  facet normal 0 0 1
    outer loop
      vertex 43.5216 1.14805 6
      vertex 43.5216 -1.14805 6
      vertex 43.5908 -0.964318 6
    endloop
  endfacet
  facet normal 0 0 1
    outer loop
      vertex 43.4406 1.32687 6
      vertex 43.5216 -1.14805 6
      vertex 43.5216 1.14805 6
    endloop
  endfacet
  facet normal 0 0 1
    outer loop
      vertex 43.4406 1.32687 6
      vertex 43.4406 -1.32687 6
      vertex 43.5216 -1.14805 6
    endloop
  endfacet
  facet normal 0 0 1
    outer loop
      vertex 43.3481 1.5 6
      vertex 43.4406 -1.32687 6
      vertex 43.4406 1.32687 6
    endloop
  endfacet
  facet normal 0 0 1
    outer loop
      vertex 43.3481 1.5 6
      vertex 43.3481 -1.5 6
      vertex 43.4406 -1.32687 6
    endloop
  endfacet
  facet normal 0 0 1
    outer loop
      vertex 43.2444 1.66671 6
      vertex 43.3481 -1.5 6
      vertex 43.3481 1.5 6
    endloop
  endfacet
  facet normal 0 0 1
    outer loop
      vertex 43.2444 1.66671 6
      vertex 43.2444 -1.66671 6
      vertex 43.3481 -1.5 6
    endloop
  endfacet
  facet normal 0 0 1
    outer loop
      vertex 43.1301 1.82628 6
      vertex 43.2444 -1.66671 6
      vertex 43.2444 1.66671 6
    endloop
  endfacet
  facet normal 0 0 1
    outer loop
      vertex 43.1301 1.82628 6
      vertex 43.1301 -1.82628 6
      vertex 43.2444 -1.66671 6
    endloop
  endfacet
  facet normal 0 0 1
    outer loop
      vertex 43.0055 1.97804 6
      vertex 43.1301 -1.82628 6
      vertex 43.1301 1.82628 6
    endloop
  endfacet
  facet normal 0 0 1
    outer loop
      vertex 43.0055 1.97804 6
      vertex 43.0055 -1.97804 6
      vertex 43.1301 -1.82628 6
    endloop
  endfacet
  facet normal 0 0 1
    outer loop
      vertex 42.8713 2.12132 6
      vertex 43.0055 -1.97804 6
      vertex 43.0055 1.97804 6
    endloop
  endfacet
  facet normal 0 0 1
    outer loop
      vertex 42.8713 2.12132 6
      vertex 42.8713 -2.12132 6
      vertex 43.0055 -1.97804 6
    endloop
  endfacet
  facet normal 0 0 1
    outer loop
      vertex 42.728 2.25552 6
      vertex 42.8713 -2.12132 6
      vertex 42.8713 2.12132 6
    endloop
  endfacet
  facet normal 0 0 1
    outer loop
      vertex 42.728 2.25552 6
      vertex 42.728 -2.25552 6
      vertex 42.8713 -2.12132 6
    endloop
  endfacet
  facet normal 0 0 1
    outer loop
      vertex 42.5763 2.38006 6
      vertex 42.728 -2.25552 6
      vertex 42.728 2.25552 6
    endloop
  endfacet
  facet normal 0 0 1
    outer loop
      vertex 42.5763 2.38006 6
      vertex 42.5763 -2.38006 6
      vertex 42.728 -2.25552 6
    endloop
  endfacet
  facet normal 0 0 1
    outer loop
      vertex 42.4167 2.49441 6
      vertex 42.5763 -2.38006 6
      vertex 42.5763 2.38006 6
    endloop
  endfacet
  facet normal 0 0 1
    outer loop
      vertex 42.4167 2.49441 6
      vertex 42.4167 -2.49441 6
      vertex 42.5763 -2.38006 6
    endloop
  endfacet
  facet normal 0 0 1
    outer loop
      vertex 42.25 2.59808 6
      vertex 42.4167 -2.49441 6
      vertex 42.4167 2.49441 6
    endloop
  endfacet
  facet normal 0 0 1
    outer loop
      vertex 42.25 2.59808 6
      vertex 42.25 -2.59808 6
      vertex 42.4167 -2.49441 6
    endloop
  endfacet
  facet normal 0 0 1
    outer loop
      vertex 42.0769 2.69062 6
      vertex 42.25 -2.59808 6
      vertex 42.25 2.59808 6
    endloop
  endfacet
  facet normal 0 0 1
    outer loop
      vertex 42.0769 2.69062 6
      vertex 42.0769 -2.69062 6
      vertex 42.25 -2.59808 6
    endloop
  endfacet
  facet normal 0 0 1
    outer loop
      vertex 41.9081 2.76709 6
      vertex 42.0769 -2.69062 6
      vertex 42.0769 2.69062 6
    endloop
  endfacet
  facet normal 0 0 1
    outer loop
      vertex 41.9081 2.76709 6
      vertex 41.9081 -2.76709 6
      vertex 42.0769 -2.69062 6
    endloop
  endfacet
  facet normal 0 0 1
    outer loop
      vertex 39.4058 2.68134 6
      vertex 41.9081 2.76709 6
      vertex 41.6407 5.4821 6
    endloop
  endfacet
  facet normal 0 0 1
    outer loop
      vertex 41.9081 2.76709 6
      vertex 39.4058 2.68134 6
      vertex 41.9081 -2.76709 6
    endloop
  endfacet
  facet normal 0 0 1
    outer loop
      vertex 39.1621 5.15578 6
      vertex 41.6407 5.4821 6
      vertex 41.193 8.19379 6
    endloop
  endfacet
  facet normal -0 0 1
    outer loop
      vertex 39.4058 -2.68134 6
      vertex 41.9081 -2.76709 6
      vertex 39.4058 2.68134 6
    endloop
  endfacet
  facet normal 0 0 1
    outer loop
      vertex 38.741 7.70607 6
      vertex 41.193 8.19379 6
      vertex 40.5689 10.8704 6
    endloop
  endfacet
  facet normal 0 0 1
    outer loop
      vertex 41.9081 -2.76709 6
      vertex 39.4058 -2.68134 6
      vertex 41.6407 -5.4821 6
    endloop
  endfacet
  facet normal 0 0 1
    outer loop
      vertex 38.1541 10.2234 6
      vertex 40.5689 10.8704 6
      vertex 39.7711 13.5005 6
    endloop
  endfacet
  facet normal -0 0 1
    outer loop
      vertex 39.1621 -5.15578 6
      vertex 41.6407 -5.4821 6
      vertex 39.4058 -2.68134 6
    endloop
  endfacet
  facet normal 0 0 1
    outer loop
      vertex 41.6407 -5.4821 6
      vertex 39.1621 -5.15578 6
      vertex 41.193 -8.19379 6
    endloop
  endfacet
  facet normal 0 0 1
    outer loop
      vertex 41.6407 5.4821 6
      vertex 39.1621 5.15578 6
      vertex 39.4058 2.68134 6
    endloop
  endfacet
  facet normal 0 0 1
    outer loop
      vertex 37.4037 12.6969 6
      vertex 39.7711 13.5005 6
      vertex 38.8029 16.0727 6
    endloop
  endfacet
  facet normal 0 0 1
    outer loop
      vertex 41.193 8.19379 6
      vertex 38.741 7.70607 6
      vertex 39.1621 5.15578 6
    endloop
  endfacet
  facet normal 0 0 1
    outer loop
      vertex 40.5689 10.8704 6
      vertex 38.1541 10.2234 6
      vertex 38.741 7.70607 6
    endloop
  endfacet
  facet normal 0 0 1
    outer loop
      vertex 36.4932 15.116 6
      vertex 38.8029 16.0727 6
      vertex 37.6687 18.5761 6
    endloop
  endfacet
  facet normal 0 0 1
    outer loop
      vertex 39.7711 13.5005 6
      vertex 37.4037 12.6969 6
      vertex 38.1541 10.2234 6
    endloop
  endfacet
  facet normal 0 0 1
    outer loop
      vertex 38.8029 16.0727 6
      vertex 36.4932 15.116 6
      vertex 37.4037 12.6969 6
    endloop
  endfacet
  facet normal 0 0 1
    outer loop
      vertex 35.4265 17.4704 6
      vertex 37.6687 18.5761 6
      vertex 36.3731 21 6
    endloop
  endfacet
  facet normal 0 0 1
    outer loop
      vertex 37.6687 18.5761 6
      vertex 35.4265 17.4704 6
      vertex 36.4932 15.116 6
    endloop
  endfacet
  facet normal 0 0 1
    outer loop
      vertex 34.208 19.75 6
      vertex 36.3731 21 6
      vertex 34.9217 23.334 6
    endloop
  endfacet
  facet normal 0 0 1
    outer loop
      vertex 36.3731 21 6
      vertex 34.208 19.75 6
      vertex 35.4265 17.4704 6
    endloop
  endfacet
  facet normal 0 0 1
    outer loop
      vertex 32.843 21.945 6
      vertex 34.9217 23.334 6
      vertex 33.3208 25.568 6
    endloop
  endfacet
  facet normal 0 0 1
    outer loop
      vertex 34.9217 23.334 6
      vertex 32.843 21.945 6
      vertex 34.208 19.75 6
    endloop
  endfacet
  facet normal 0 0 1
    outer loop
      vertex 31.3375 24.0461 6
      vertex 33.3208 25.568 6
      vertex 31.5773 27.6925 6
    endloop
  endfacet
  facet normal 0 0 1
    outer loop
      vertex 33.3208 25.568 6
      vertex 31.3375 24.0461 6
      vertex 32.843 21.945 6
    endloop
  endfacet
  facet normal 0 0 1
    outer loop
      vertex 29.6977 26.0442 6
      vertex 31.5773 27.6925 6
      vertex 29.6985 29.6985 6
    endloop
  endfacet
  facet normal 0 0 1
    outer loop
      vertex 31.5773 27.6925 6
      vertex 29.6977 26.0442 6
      vertex 31.3375 24.0461 6
    endloop
  endfacet
  facet normal 0 0 1
    outer loop
      vertex 29.6985 29.6985 6
      vertex 27.9307 27.9307 6
      vertex 29.6977 26.0442 6
    endloop
  endfacet
  facet normal 0 0 1
    outer loop
      vertex 27.6925 31.5773 6
      vertex 27.9307 27.9307 6
      vertex 29.6985 29.6985 6
    endloop
  endfacet
  facet normal 0 0 1
    outer loop
      vertex 26.0442 29.6977 6
      vertex 27.6925 31.5773 6
      vertex 26.9842 32.1586 6
    endloop
  endfacet
  facet normal 0 0 1
    outer loop
      vertex 27.6925 31.5773 6
      vertex 26.0442 29.6977 6
      vertex 27.9307 27.9307 6
    endloop
  endfacet
  facet normal 0 -0 1
    outer loop
      vertex 26.0442 29.6977 6
      vertex 26.9842 32.1586 6
      vertex 25.378 30.2444 6
    endloop
  endfacet
  facet normal -0 0 1
    outer loop
      vertex 38.741 -7.70607 6
      vertex 41.193 -8.19379 6
      vertex 39.1621 -5.15578 6
    endloop
  endfacet
  facet normal 0 0 1
    outer loop
      vertex 41.193 -8.19379 6
      vertex 38.741 -7.70607 6
      vertex 40.5689 -10.8704 6
    endloop
  endfacet
  facet normal -0 0 1
    outer loop
      vertex 38.1541 -10.2234 6
      vertex 40.5689 -10.8704 6
      vertex 38.741 -7.70607 6
    endloop
  endfacet
  facet normal 0 0 1
    outer loop
      vertex 40.5689 -10.8704 6
      vertex 38.1541 -10.2234 6
      vertex 39.7711 -13.5005 6
    endloop
  endfacet
  facet normal -0 0 1
    outer loop
      vertex 37.4037 -12.6969 6
      vertex 39.7711 -13.5005 6
      vertex 38.1541 -10.2234 6
    endloop
  endfacet
  facet normal 0 0 1
    outer loop
      vertex 39.7711 -13.5005 6
      vertex 37.4037 -12.6969 6
      vertex 38.8029 -16.0727 6
    endloop
  endfacet
  facet normal -0 0 1
    outer loop
      vertex 36.4932 -15.116 6
      vertex 38.8029 -16.0727 6
      vertex 37.4037 -12.6969 6
    endloop
  endfacet
  facet normal 0 0 1
    outer loop
      vertex 38.8029 -16.0727 6
      vertex 36.4932 -15.116 6
      vertex 37.6687 -18.5761 6
    endloop
  endfacet
  facet normal -0 0 1
    outer loop
      vertex 35.4265 -17.4704 6
      vertex 37.6687 -18.5761 6
      vertex 36.4932 -15.116 6
    endloop
  endfacet
  facet normal 0 0 1
    outer loop
      vertex 37.6687 -18.5761 6
      vertex 35.4265 -17.4704 6
      vertex 36.3731 -21 6
    endloop
  endfacet
  facet normal -0 0 1
    outer loop
      vertex 34.208 -19.75 6
      vertex 36.3731 -21 6
      vertex 35.4265 -17.4704 6
    endloop
  endfacet
  facet normal 0 0 1
    outer loop
      vertex 36.3731 -21 6
      vertex 34.208 -19.75 6
      vertex 34.9217 -23.334 6
    endloop
  endfacet
  facet normal -0 0 1
    outer loop
      vertex 32.843 -21.945 6
      vertex 34.9217 -23.334 6
      vertex 34.208 -19.75 6
    endloop
  endfacet
  facet normal 0 0 1
    outer loop
      vertex 34.9217 -23.334 6
      vertex 32.843 -21.945 6
      vertex 33.3208 -25.568 6
    endloop
  endfacet
  facet normal -0 0 1
    outer loop
      vertex 31.3375 -24.0461 6
      vertex 33.3208 -25.568 6
      vertex 32.843 -21.945 6
    endloop
  endfacet
  facet normal 0 0 1
    outer loop
      vertex 33.3208 -25.568 6
      vertex 31.3375 -24.0461 6
      vertex 31.5773 -27.6925 6
    endloop
  endfacet
  facet normal -0 0 1
    outer loop
      vertex 29.6977 -26.0442 6
      vertex 31.5773 -27.6925 6
      vertex 31.3375 -24.0461 6
    endloop
  endfacet
  facet normal 0 0 1
    outer loop
      vertex 31.5773 -27.6925 6
      vertex 29.6977 -26.0442 6
      vertex 29.6985 -29.6985 6
    endloop
  endfacet
  facet normal -0 0 1
    outer loop
      vertex 27.9307 -27.9307 6
      vertex 29.6985 -29.6985 6
      vertex 29.6977 -26.0442 6
    endloop
  endfacet
  facet normal 0 0 1
    outer loop
      vertex 27.9307 -27.9307 6
      vertex 27.6925 -31.5773 6
      vertex 29.6985 -29.6985 6
    endloop
  endfacet
  facet normal -0 0 1
    outer loop
      vertex 26.0442 -29.6977 6
      vertex 27.6925 -31.5773 6
      vertex 27.9307 -27.9307 6
    endloop
  endfacet
  facet normal 0 0 1
    outer loop
      vertex 27.6925 -31.5773 6
      vertex 26.0442 -29.6977 6
      vertex 26.9842 -32.1586 6
    endloop
  endfacet
  facet normal 0 0 1
    outer loop
      vertex 26.9842 -32.1586 6
      vertex 26.0442 -29.6977 6
      vertex 25.378 -30.2444 6
    endloop
  endfacet
  facet normal 0.683588 -0.729868 0
    outer loop
      vertex 27.6925 -31.5773 0
      vertex 29.6985 -29.6985 6
      vertex 27.6925 -31.5773 6
    endloop
  endfacet
  facet normal 0.683588 -0.729868 0
    outer loop
      vertex 29.6985 -29.6985 6
      vertex 27.6925 -31.5773 0
      vertex 29.6985 -29.6985 0
    endloop
  endfacet
  facet normal -0.634368 0.773031 0
    outer loop
      vertex 26.0442 -29.6977 0
      vertex 25.378 -30.2444 6
      vertex 26.0442 -29.6977 6
    endloop
  endfacet
  facet normal -0.634368 0.773031 0
    outer loop
      vertex 25.378 -30.2444 6
      vertex 26.0442 -29.6977 0
      vertex 25.378 -30.2444 0
    endloop
  endfacet
  facet normal -0.77301 0.634394 0
    outer loop
      vertex 29.6977 -26.0442 0
      vertex 31.3375 -24.0461 6
      vertex 31.3375 -24.0461 0
    endloop
  endfacet
  facet normal -0.77301 0.634394 0
    outer loop
      vertex 31.3375 -24.0461 6
      vertex 29.6977 -26.0442 0
      vertex 29.6977 -26.0442 6
    endloop
  endfacet
  facet normal -0.849192 0.528085 0
    outer loop
      vertex 32.843 -21.945 0
      vertex 34.208 -19.75 6
      vertex 34.208 -19.75 0
    endloop
  endfacet
  facet normal -0.849192 0.528085 0
    outer loop
      vertex 34.208 -19.75 6
      vertex 32.843 -21.945 0
      vertex 32.843 -21.945 6
    endloop
  endfacet
  facet normal -0.995185 -0.0980127 0
    outer loop
      vertex 39.4058 2.68134 0
      vertex 39.1621 5.15578 6
      vertex 39.1621 5.15578 0
    endloop
  endfacet
  facet normal -0.995185 -0.0980127 0
    outer loop
      vertex 39.1621 5.15578 6
      vertex 39.4058 2.68134 0
      vertex 39.4058 2.68134 6
    endloop
  endfacet
  facet normal -0.81287 0.582445 0
    outer loop
      vertex 31.3375 -24.0461 0
      vertex 32.843 -21.945 6
      vertex 32.843 -21.945 0
    endloop
  endfacet
  facet normal -0.81287 0.582445 0
    outer loop
      vertex 32.843 -21.945 6
      vertex 31.3375 -24.0461 0
      vertex 31.3375 -24.0461 6
    endloop
  endfacet
  facet normal -0.956933 0.29031 0
    outer loop
      vertex 37.4037 -12.6969 0
      vertex 38.1541 -10.2234 6
      vertex 38.1541 -10.2234 0
    endloop
  endfacet
  facet normal -0.956933 0.29031 0
    outer loop
      vertex 38.1541 -10.2234 6
      vertex 37.4037 -12.6969 0
      vertex 37.4037 -12.6969 6
    endloop
  endfacet
  facet normal -0.729845 -0.683613 0
    outer loop
      vertex 29.6977 26.0442 0
      vertex 27.9307 27.9307 6
      vertex 27.9307 27.9307 0
    endloop
  endfacet
  facet normal -0.729845 -0.683613 0
    outer loop
      vertex 27.9307 27.9307 6
      vertex 29.6977 26.0442 0
      vertex 29.6977 26.0442 6
    endloop
  endfacet
  facet normal -0.935904 0.352255 0
    outer loop
      vertex 36.4932 -15.116 0
      vertex 37.4037 -12.6969 6
      vertex 37.4037 -12.6969 0
    endloop
  endfacet
  facet normal -0.935904 0.352255 0
    outer loop
      vertex 37.4037 -12.6969 6
      vertex 36.4932 -15.116 0
      vertex 36.4932 -15.116 6
    endloop
  endfacet
  facet normal -0.986641 -0.162913 0
    outer loop
      vertex 39.1621 5.15578 0
      vertex 38.741 7.70607 6
      vertex 38.741 7.70607 0
    endloop
  endfacet
  facet normal -0.986641 -0.162913 0
    outer loop
      vertex 38.741 7.70607 6
      vertex 39.1621 5.15578 0
      vertex 39.1621 5.15578 6
    endloop
  endfacet
  facet normal -0.729845 0.683613 0
    outer loop
      vertex 27.9307 -27.9307 0
      vertex 29.6977 -26.0442 6
      vertex 29.6977 -26.0442 0
    endloop
  endfacet
  facet normal -0.729845 0.683613 0
    outer loop
      vertex 29.6977 -26.0442 6
      vertex 27.9307 -27.9307 0
      vertex 27.9307 -27.9307 6
    endloop
  endfacet
  facet normal -0.634368 -0.773031 0
    outer loop
      vertex 25.378 30.2444 0
      vertex 26.0442 29.6977 6
      vertex 25.378 30.2444 6
    endloop
  endfacet
  facet normal -0.634368 -0.773031 -0
    outer loop
      vertex 26.0442 29.6977 6
      vertex 25.378 30.2444 0
      vertex 26.0442 29.6977 0
    endloop
  endfacet
  facet normal -0.81287 -0.582445 0
    outer loop
      vertex 32.843 21.945 0
      vertex 31.3375 24.0461 6
      vertex 31.3375 24.0461 0
    endloop
  endfacet
  facet normal -0.81287 -0.582445 0
    outer loop
      vertex 31.3375 24.0461 6
      vertex 32.843 21.945 0
      vertex 32.843 21.945 6
    endloop
  endfacet
  facet normal -0.683613 0.729845 0
    outer loop
      vertex 27.9307 -27.9307 0
      vertex 26.0442 -29.6977 6
      vertex 27.9307 -27.9307 6
    endloop
  endfacet
  facet normal -0.683613 0.729845 0
    outer loop
      vertex 26.0442 -29.6977 6
      vertex 27.9307 -27.9307 0
      vertex 26.0442 -29.6977 0
    endloop
  endfacet
  facet normal -0.956933 -0.29031 0
    outer loop
      vertex 38.1541 10.2234 0
      vertex 37.4037 12.6969 6
      vertex 37.4037 12.6969 0
    endloop
  endfacet
  facet normal -0.956933 -0.29031 0
    outer loop
      vertex 37.4037 12.6969 6
      vertex 38.1541 10.2234 0
      vertex 38.1541 10.2234 6
    endloop
  endfacet
  facet normal -0.986641 0.162913 0
    outer loop
      vertex 38.741 -7.70607 0
      vertex 39.1621 -5.15578 6
      vertex 39.1621 -5.15578 0
    endloop
  endfacet
  facet normal -0.986641 0.162913 0
    outer loop
      vertex 39.1621 -5.15578 6
      vertex 38.741 -7.70607 0
      vertex 38.741 -7.70607 6
    endloop
  endfacet
  facet normal -0.973882 -0.227055 0
    outer loop
      vertex 38.741 7.70607 0
      vertex 38.1541 10.2234 6
      vertex 38.1541 10.2234 0
    endloop
  endfacet
  facet normal -0.973882 -0.227055 0
    outer loop
      vertex 38.1541 10.2234 6
      vertex 38.741 7.70607 0
      vertex 38.741 7.70607 6
    endloop
  endfacet
  facet normal -0.935904 -0.352255 0
    outer loop
      vertex 37.4037 12.6969 0
      vertex 36.4932 15.116 6
      vertex 36.4932 15.116 0
    endloop
  endfacet
  facet normal -0.935904 -0.352255 0
    outer loop
      vertex 36.4932 15.116 6
      vertex 37.4037 12.6969 0
      vertex 37.4037 12.6969 6
    endloop
  endfacet
  facet normal -0.849192 -0.528085 0
    outer loop
      vertex 34.208 19.75 0
      vertex 32.843 21.945 6
      vertex 32.843 21.945 0
    endloop
  endfacet
  facet normal -0.849192 -0.528085 0
    outer loop
      vertex 32.843 21.945 6
      vertex 34.208 19.75 0
      vertex 34.208 19.75 6
    endloop
  endfacet
  facet normal -0.881917 0.471405 0
    outer loop
      vertex 34.208 -19.75 0
      vertex 35.4265 -17.4704 6
      vertex 35.4265 -17.4704 0
    endloop
  endfacet
  facet normal -0.881917 0.471405 0
    outer loop
      vertex 35.4265 -17.4704 6
      vertex 34.208 -19.75 0
      vertex 34.208 -19.75 6
    endloop
  endfacet
  facet normal -0.77301 -0.634394 0
    outer loop
      vertex 31.3375 24.0461 0
      vertex 29.6977 26.0442 6
      vertex 29.6977 26.0442 0
    endloop
  endfacet
  facet normal -0.77301 -0.634394 0
    outer loop
      vertex 29.6977 26.0442 6
      vertex 31.3375 24.0461 0
      vertex 31.3375 24.0461 6
    endloop
  endfacet
  facet normal -0.881917 -0.471405 0
    outer loop
      vertex 35.4265 17.4704 0
      vertex 34.208 19.75 6
      vertex 34.208 19.75 0
    endloop
  endfacet
  facet normal -0.881917 -0.471405 0
    outer loop
      vertex 34.208 19.75 6
      vertex 35.4265 17.4704 0
      vertex 35.4265 17.4704 6
    endloop
  endfacet
  facet normal -0.910873 -0.412686 0
    outer loop
      vertex 36.4932 15.116 0
      vertex 35.4265 17.4704 6
      vertex 35.4265 17.4704 0
    endloop
  endfacet
  facet normal -0.910873 -0.412686 0
    outer loop
      vertex 35.4265 17.4704 6
      vertex 36.4932 15.116 0
      vertex 36.4932 15.116 6
    endloop
  endfacet
  facet normal -0.683613 -0.729845 0
    outer loop
      vertex 26.0442 29.6977 0
      vertex 27.9307 27.9307 6
      vertex 26.0442 29.6977 6
    endloop
  endfacet
  facet normal -0.683613 -0.729845 -0
    outer loop
      vertex 27.9307 27.9307 6
      vertex 26.0442 29.6977 0
      vertex 27.9307 27.9307 0
    endloop
  endfacet
  facet normal -0.995185 0.0980127 0
    outer loop
      vertex 39.1621 -5.15578 0
      vertex 39.4058 -2.68134 6
      vertex 39.4058 -2.68134 0
    endloop
  endfacet
  facet normal -0.995185 0.0980127 0
    outer loop
      vertex 39.4058 -2.68134 6
      vertex 39.1621 -5.15578 0
      vertex 39.1621 -5.15578 6
    endloop
  endfacet
  facet normal -0.910873 0.412686 0
    outer loop
      vertex 35.4265 -17.4704 0
      vertex 36.4932 -15.116 6
      vertex 36.4932 -15.116 0
    endloop
  endfacet
  facet normal -0.910873 0.412686 0
    outer loop
      vertex 36.4932 -15.116 6
      vertex 35.4265 -17.4704 0
      vertex 35.4265 -17.4704 6
    endloop
  endfacet
  facet normal -0.973882 0.227055 0
    outer loop
      vertex 38.1541 -10.2234 0
      vertex 38.741 -7.70607 6
      vertex 38.741 -7.70607 0
    endloop
  endfacet
  facet normal -0.973882 0.227055 0
    outer loop
      vertex 38.741 -7.70607 6
      vertex 38.1541 -10.2234 0
      vertex 38.1541 -10.2234 6
    endloop
  endfacet
  facet normal -0.766045 -0.642787 0
    outer loop
      vertex 26.9842 -32.1586 0
      vertex 25.378 -30.2444 6
      vertex 25.378 -30.2444 0
    endloop
  endfacet
  facet normal -0.766045 -0.642787 0
    outer loop
      vertex 25.378 -30.2444 6
      vertex 26.9842 -32.1586 0
      vertex 26.9842 -32.1586 6
    endloop
  endfacet
  facet normal -0.766045 0.642787 0
    outer loop
      vertex 25.378 30.2444 0
      vertex 26.9842 32.1586 6
      vertex 26.9842 32.1586 0
    endloop
  endfacet
  facet normal -0.766045 0.642787 0
    outer loop
      vertex 26.9842 32.1586 6
      vertex 25.378 30.2444 0
      vertex 25.378 30.2444 6
    endloop
  endfacet
  facet normal -0.634524 0.772903 0
    outer loop
      vertex 38.9237 2.38006 0
      vertex 38.772 2.25552 6
      vertex 38.9237 2.38006 6
    endloop
  endfacet
  facet normal -0.634524 0.772903 0
    outer loop
      vertex 38.772 2.25552 6
      vertex 38.9237 2.38006 0
      vertex 38.772 2.25552 0
    endloop
  endfacet
  facet normal 0.582418 0.812889 -0
    outer loop
      vertex 42.5763 2.38006 0
      vertex 42.4167 2.49441 6
      vertex 42.5763 2.38006 6
    endloop
  endfacet
  facet normal 0.582418 0.812889 0
    outer loop
      vertex 42.4167 2.49441 6
      vertex 42.5763 2.38006 0
      vertex 42.4167 2.49441 0
    endloop
  endfacet
  facet normal 0.995156 0.0983089 0
    outer loop
      vertex 43.7436 0.196209 6
      vertex 43.7243 0.391578 0
      vertex 43.7243 0.391578 6
    endloop
  endfacet
  facet normal 0.995156 0.0983089 0
    outer loop
      vertex 43.7243 0.391578 0
      vertex 43.7436 0.196209 6
      vertex 43.7436 0.196209 0
    endloop
  endfacet
  facet normal 0.634524 0.772903 -0
    outer loop
      vertex 42.728 2.25552 0
      vertex 42.5763 2.38006 6
      vertex 42.728 2.25552 6
    endloop
  endfacet
  facet normal 0.634524 0.772903 0
    outer loop
      vertex 42.5763 2.38006 6
      vertex 42.728 2.25552 0
      vertex 42.5763 2.38006 0
    endloop
  endfacet
  facet normal -0.882006 -0.471239 0
    outer loop
      vertex 38.1519 -1.5 0
      vertex 38.0594 -1.32687 6
      vertex 38.0594 -1.32687 0
    endloop
  endfacet
  facet normal -0.882006 -0.471239 0
    outer loop
      vertex 38.0594 -1.32687 6
      vertex 38.1519 -1.5 0
      vertex 38.1519 -1.5 6
    endloop
  endfacet
  facet normal 0.986708 -0.162504 0
    outer loop
      vertex 43.6924 -0.585271 6
      vertex 43.7243 -0.391578 0
      vertex 43.7243 -0.391578 6
    endloop
  endfacet
  facet normal 0.986708 -0.162504 0
    outer loop
      vertex 43.7243 -0.391578 0
      vertex 43.6924 -0.585271 6
      vertex 43.6924 -0.585271 0
    endloop
  endfacet
  facet normal 0.683551 -0.729902 0
    outer loop
      vertex 42.728 -2.25552 0
      vertex 42.8713 -2.12132 6
      vertex 42.728 -2.25552 6
    endloop
  endfacet
  facet normal 0.683551 -0.729902 0
    outer loop
      vertex 42.8713 -2.12132 6
      vertex 42.728 -2.25552 0
      vertex 42.8713 -2.12132 0
    endloop
  endfacet
  facet normal 0.882006 0.471239 0
    outer loop
      vertex 43.4406 1.32687 6
      vertex 43.3481 1.5 0
      vertex 43.3481 1.5 6
    endloop
  endfacet
  facet normal 0.882006 0.471239 0
    outer loop
      vertex 43.3481 1.5 0
      vertex 43.4406 1.32687 6
      vertex 43.4406 1.32687 0
    endloop
  endfacet
  facet normal 0.999468 0.0326009 0
    outer loop
      vertex 43.75 0 6
      vertex 43.7436 0.196209 0
      vertex 43.7436 0.196209 6
    endloop
  endfacet
  facet normal 0.999468 0.0326009 0
    outer loop
      vertex 43.7436 0.196209 0
      vertex 43.75 0 6
      vertex 43.75 0 0
    endloop
  endfacet
  facet normal -0.986708 0.162504 0
    outer loop
      vertex 37.7757 0.391578 0
      vertex 37.8076 0.585271 6
      vertex 37.8076 0.585271 0
    endloop
  endfacet
  facet normal -0.986708 0.162504 0
    outer loop
      vertex 37.8076 0.585271 6
      vertex 37.7757 0.391578 0
      vertex 37.7757 0.391578 6
    endloop
  endfacet
  facet normal 0.729855 0.683602 0
    outer loop
      vertex 43.0055 1.97804 6
      vertex 42.8713 2.12132 0
      vertex 42.8713 2.12132 6
    endloop
  endfacet
  facet normal 0.729855 0.683602 0
    outer loop
      vertex 42.8713 2.12132 0
      vertex 43.0055 1.97804 6
      vertex 43.0055 1.97804 0
    endloop
  endfacet
  facet normal -0.683551 -0.729902 0
    outer loop
      vertex 38.6287 -2.12132 0
      vertex 38.772 -2.25552 6
      vertex 38.6287 -2.12132 6
    endloop
  endfacet
  facet normal -0.683551 -0.729902 -0
    outer loop
      vertex 38.772 -2.25552 6
      vertex 38.6287 -2.12132 0
      vertex 38.772 -2.25552 0
    endloop
  endfacet
  facet normal 0.849127 -0.528189 0
    outer loop
      vertex 43.2444 -1.66671 6
      vertex 43.3481 -1.5 0
      vertex 43.3481 -1.5 6
    endloop
  endfacet
  facet normal 0.849127 -0.528189 0
    outer loop
      vertex 43.3481 -1.5 0
      vertex 43.2444 -1.66671 6
      vertex 43.2444 -1.66671 0
    endloop
  endfacet
  facet normal 0.973853 0.227181 0
    outer loop
      vertex 43.6924 0.585271 6
      vertex 43.6478 0.776457 0
      vertex 43.6478 0.776457 6
    endloop
  endfacet
  facet normal 0.973853 0.227181 0
    outer loop
      vertex 43.6478 0.776457 0
      vertex 43.6924 0.585271 6
      vertex 43.6924 0.585271 0
    endloop
  endfacet
  facet normal -0.812958 -0.582322 0
    outer loop
      vertex 38.3699 -1.82628 0
      vertex 38.2556 -1.66671 6
      vertex 38.2556 -1.66671 0
    endloop
  endfacet
  facet normal -0.812958 -0.582322 0
    outer loop
      vertex 38.2556 -1.66671 6
      vertex 38.3699 -1.82628 0
      vertex 38.3699 -1.82628 6
    endloop
  endfacet
  facet normal -0.729855 0.683602 0
    outer loop
      vertex 38.4945 1.97804 0
      vertex 38.6287 2.12132 6
      vertex 38.6287 2.12132 0
    endloop
  endfacet
  facet normal -0.729855 0.683602 0
    outer loop
      vertex 38.6287 2.12132 6
      vertex 38.4945 1.97804 0
      vertex 38.4945 1.97804 6
    endloop
  endfacet
  facet normal 0.973853 -0.227181 0
    outer loop
      vertex 43.6478 -0.776457 6
      vertex 43.6924 -0.585271 0
      vertex 43.6924 -0.585271 6
    endloop
  endfacet
  facet normal 0.973853 -0.227181 0
    outer loop
      vertex 43.6924 -0.585271 0
      vertex 43.6478 -0.776457 6
      vertex 43.6478 -0.776457 0
    endloop
  endfacet
  facet normal 0.772876 -0.634557 0
    outer loop
      vertex 43.0055 -1.97804 6
      vertex 43.1301 -1.82628 0
      vertex 43.1301 -1.82628 6
    endloop
  endfacet
  facet normal 0.772876 -0.634557 0
    outer loop
      vertex 43.1301 -1.82628 0
      vertex 43.0055 -1.97804 6
      vertex 43.0055 -1.97804 0
    endloop
  endfacet
  facet normal -0.772876 -0.634557 0
    outer loop
      vertex 38.4945 -1.97804 0
      vertex 38.3699 -1.82628 6
      vertex 38.3699 -1.82628 0
    endloop
  endfacet
  facet normal -0.772876 -0.634557 0
    outer loop
      vertex 38.3699 -1.82628 6
      vertex 38.4945 -1.97804 0
      vertex 38.4945 -1.97804 6
    endloop
  endfacet
  facet normal 0.412652 -0.910889 0
    outer loop
      vertex 41.9081 -2.76709 0
      vertex 42.0769 -2.69062 6
      vertex 41.9081 -2.76709 6
    endloop
  endfacet
  facet normal 0.412652 -0.910889 0
    outer loop
      vertex 42.0769 -2.69062 6
      vertex 41.9081 -2.76709 0
      vertex 42.0769 -2.69062 0
    endloop
  endfacet
  facet normal 0.729855 -0.683602 0
    outer loop
      vertex 42.8713 -2.12132 6
      vertex 43.0055 -1.97804 0
      vertex 43.0055 -1.97804 6
    endloop
  endfacet
  facet normal 0.729855 -0.683602 0
    outer loop
      vertex 43.0055 -1.97804 0
      vertex 42.8713 -2.12132 6
      vertex 42.8713 -2.12132 0
    endloop
  endfacet
  facet normal 0.471461 0.881887 -0
    outer loop
      vertex 42.25 2.59808 0
      vertex 42.0769 2.69062 6
      vertex 42.25 2.59808 6
    endloop
  endfacet
  facet normal 0.471461 0.881887 0
    outer loop
      vertex 42.0769 2.69062 6
      vertex 42.25 2.59808 0
      vertex 42.0769 2.69062 0
    endloop
  endfacet
  facet normal -0.986708 -0.162504 0
    outer loop
      vertex 37.8076 -0.585271 0
      vertex 37.7757 -0.391578 6
      vertex 37.7757 -0.391578 0
    endloop
  endfacet
  facet normal -0.986708 -0.162504 0
    outer loop
      vertex 37.7757 -0.391578 6
      vertex 37.8076 -0.585271 0
      vertex 37.8076 -0.585271 6
    endloop
  endfacet
  facet normal 0.528102 -0.849181 0
    outer loop
      vertex 42.25 -2.59808 0
      vertex 42.4167 -2.49441 6
      vertex 42.25 -2.59808 6
    endloop
  endfacet
  facet normal 0.528102 -0.849181 0
    outer loop
      vertex 42.4167 -2.49441 6
      vertex 42.25 -2.59808 0
      vertex 42.4167 -2.49441 0
    endloop
  endfacet
  facet normal 0.935825 0.352465 0
    outer loop
      vertex 43.5908 0.964318 6
      vertex 43.5216 1.14805 0
      vertex 43.5216 1.14805 6
    endloop
  endfacet
  facet normal 0.935825 0.352465 0
    outer loop
      vertex 43.5216 1.14805 0
      vertex 43.5908 0.964318 6
      vertex 43.5908 0.964318 0
    endloop
  endfacet
  facet normal 0.986708 0.162504 0
    outer loop
      vertex 43.7243 0.391578 6
      vertex 43.6924 0.585271 0
      vertex 43.6924 0.585271 6
    endloop
  endfacet
  facet normal 0.986708 0.162504 0
    outer loop
      vertex 43.6924 0.585271 0
      vertex 43.7243 0.391578 6
      vertex 43.7243 0.391578 0
    endloop
  endfacet
  facet normal -0.935825 -0.352465 0
    outer loop
      vertex 37.9784 -1.14805 0
      vertex 37.9092 -0.964318 6
      vertex 37.9092 -0.964318 0
    endloop
  endfacet
  facet normal -0.935825 -0.352465 0
    outer loop
      vertex 37.9092 -0.964318 6
      vertex 37.9784 -1.14805 0
      vertex 37.9784 -1.14805 6
    endloop
  endfacet
  facet normal -0.910906 -0.412613 0
    outer loop
      vertex 38.0594 -1.32687 0
      vertex 37.9784 -1.14805 6
      vertex 37.9784 -1.14805 0
    endloop
  endfacet
  facet normal -0.910906 -0.412613 0
    outer loop
      vertex 37.9784 -1.14805 6
      vertex 38.0594 -1.32687 0
      vertex 38.0594 -1.32687 6
    endloop
  endfacet
  facet normal -0.999468 -0.0326009 0
    outer loop
      vertex 37.7564 -0.196209 0
      vertex 37.75 0 6
      vertex 37.75 0 0
    endloop
  endfacet
  facet normal -0.999468 -0.0326009 0
    outer loop
      vertex 37.75 0 6
      vertex 37.7564 -0.196209 0
      vertex 37.7564 -0.196209 6
    endloop
  endfacet
  facet normal 0.935825 -0.352465 0
    outer loop
      vertex 43.5216 -1.14805 6
      vertex 43.5908 -0.964318 0
      vertex 43.5908 -0.964318 6
    endloop
  endfacet
  facet normal 0.935825 -0.352465 0
    outer loop
      vertex 43.5908 -0.964318 0
      vertex 43.5216 -1.14805 6
      vertex 43.5216 -1.14805 0
    endloop
  endfacet
  facet normal 0.956922 0.290345 0
    outer loop
      vertex 43.6478 0.776457 6
      vertex 43.5908 0.964318 0
      vertex 43.5908 0.964318 6
    endloop
  endfacet
  facet normal 0.956922 0.290345 0
    outer loop
      vertex 43.5908 0.964318 0
      vertex 43.6478 0.776457 6
      vertex 43.6478 0.776457 0
    endloop
  endfacet
  facet normal 0.849127 0.528189 0
    outer loop
      vertex 43.3481 1.5 6
      vertex 43.2444 1.66671 0
      vertex 43.2444 1.66671 6
    endloop
  endfacet
  facet normal 0.849127 0.528189 0
    outer loop
      vertex 43.2444 1.66671 0
      vertex 43.3481 1.5 6
      vertex 43.3481 1.5 0
    endloop
  endfacet
  facet normal -0.683551 0.729902 0
    outer loop
      vertex 38.772 2.25552 0
      vertex 38.6287 2.12132 6
      vertex 38.772 2.25552 6
    endloop
  endfacet
  facet normal -0.683551 0.729902 0
    outer loop
      vertex 38.6287 2.12132 6
      vertex 38.772 2.25552 0
      vertex 38.6287 2.12132 0
    endloop
  endfacet
  facet normal -0.995156 0.0983089 0
    outer loop
      vertex 37.7564 0.196209 0
      vertex 37.7757 0.391578 6
      vertex 37.7757 0.391578 0
    endloop
  endfacet
  facet normal -0.995156 0.0983089 0
    outer loop
      vertex 37.7757 0.391578 6
      vertex 37.7564 0.196209 0
      vertex 37.7564 0.196209 6
    endloop
  endfacet
  facet normal 0.995156 -0.0983089 0
    outer loop
      vertex 43.7243 -0.391578 6
      vertex 43.7436 -0.196209 0
      vertex 43.7436 -0.196209 6
    endloop
  endfacet
  facet normal 0.995156 -0.0983089 0
    outer loop
      vertex 43.7436 -0.196209 0
      vertex 43.7243 -0.391578 6
      vertex 43.7243 -0.391578 0
    endloop
  endfacet
  facet normal -0.999468 0.0326009 0
    outer loop
      vertex 37.75 0 0
      vertex 37.7564 0.196209 6
      vertex 37.7564 0.196209 0
    endloop
  endfacet
  facet normal -0.999468 0.0326009 0
    outer loop
      vertex 37.7564 0.196209 6
      vertex 37.75 0 0
      vertex 37.75 0 6
    endloop
  endfacet
  facet normal 0.956922 -0.290345 0
    outer loop
      vertex 43.5908 -0.964318 6
      vertex 43.6478 -0.776457 0
      vertex 43.6478 -0.776457 6
    endloop
  endfacet
  facet normal 0.956922 -0.290345 0
    outer loop
      vertex 43.6478 -0.776457 0
      vertex 43.5908 -0.964318 6
      vertex 43.5908 -0.964318 0
    endloop
  endfacet
  facet normal 0.528102 0.849181 -0
    outer loop
      vertex 42.4167 2.49441 0
      vertex 42.25 2.59808 6
      vertex 42.4167 2.49441 6
    endloop
  endfacet
  facet normal 0.528102 0.849181 0
    outer loop
      vertex 42.25 2.59808 6
      vertex 42.4167 2.49441 0
      vertex 42.25 2.59808 0
    endloop
  endfacet
  facet normal -0.956922 -0.290345 0
    outer loop
      vertex 37.9092 -0.964318 0
      vertex 37.8522 -0.776457 6
      vertex 37.8522 -0.776457 0
    endloop
  endfacet
  facet normal -0.956922 -0.290345 0
    outer loop
      vertex 37.8522 -0.776457 6
      vertex 37.9092 -0.964318 0
      vertex 37.9092 -0.964318 6
    endloop
  endfacet
  facet normal -0.849127 0.528189 0
    outer loop
      vertex 38.1519 1.5 0
      vertex 38.2556 1.66671 6
      vertex 38.2556 1.66671 0
    endloop
  endfacet
  facet normal -0.849127 0.528189 0
    outer loop
      vertex 38.2556 1.66671 6
      vertex 38.1519 1.5 0
      vertex 38.1519 1.5 6
    endloop
  endfacet
  facet normal -0.973853 -0.227181 0
    outer loop
      vertex 37.8522 -0.776457 0
      vertex 37.8076 -0.585271 6
      vertex 37.8076 -0.585271 0
    endloop
  endfacet
  facet normal -0.973853 -0.227181 0
    outer loop
      vertex 37.8076 -0.585271 6
      vertex 37.8522 -0.776457 0
      vertex 37.8522 -0.776457 6
    endloop
  endfacet
  facet normal 0.999468 -0.0326009 0
    outer loop
      vertex 43.7436 -0.196209 6
      vertex 43.75 0 0
      vertex 43.75 0 6
    endloop
  endfacet
  facet normal 0.999468 -0.0326009 0
    outer loop
      vertex 43.75 0 0
      vertex 43.7436 -0.196209 6
      vertex 43.7436 -0.196209 0
    endloop
  endfacet
  facet normal 0.910906 0.412613 0
    outer loop
      vertex 43.5216 1.14805 6
      vertex 43.4406 1.32687 0
      vertex 43.4406 1.32687 6
    endloop
  endfacet
  facet normal 0.910906 0.412613 0
    outer loop
      vertex 43.4406 1.32687 0
      vertex 43.5216 1.14805 6
      vertex 43.5216 1.14805 0
    endloop
  endfacet
  facet normal -0.956922 0.290345 0
    outer loop
      vertex 37.8522 0.776457 0
      vertex 37.9092 0.964318 6
      vertex 37.9092 0.964318 0
    endloop
  endfacet
  facet normal -0.956922 0.290345 0
    outer loop
      vertex 37.9092 0.964318 6
      vertex 37.8522 0.776457 0
      vertex 37.8522 0.776457 6
    endloop
  endfacet
  facet normal 0.812958 -0.582322 0
    outer loop
      vertex 43.1301 -1.82628 6
      vertex 43.2444 -1.66671 0
      vertex 43.2444 -1.66671 6
    endloop
  endfacet
  facet normal 0.812958 -0.582322 0
    outer loop
      vertex 43.2444 -1.66671 0
      vertex 43.1301 -1.82628 6
      vertex 43.1301 -1.82628 0
    endloop
  endfacet
  facet normal -0.910906 0.412613 0
    outer loop
      vertex 37.9784 1.14805 0
      vertex 38.0594 1.32687 6
      vertex 38.0594 1.32687 0
    endloop
  endfacet
  facet normal -0.910906 0.412613 0
    outer loop
      vertex 38.0594 1.32687 6
      vertex 37.9784 1.14805 0
      vertex 37.9784 1.14805 6
    endloop
  endfacet
  facet normal -0.582418 0.812889 0
    outer loop
      vertex 39.0833 2.49441 0
      vertex 38.9237 2.38006 6
      vertex 39.0833 2.49441 6
    endloop
  endfacet
  facet normal -0.582418 0.812889 0
    outer loop
      vertex 38.9237 2.38006 6
      vertex 39.0833 2.49441 0
      vertex 38.9237 2.38006 0
    endloop
  endfacet
  facet normal -0.528102 -0.849181 0
    outer loop
      vertex 39.0833 -2.49441 0
      vertex 39.25 -2.59808 6
      vertex 39.0833 -2.49441 6
    endloop
  endfacet
  facet normal -0.528102 -0.849181 -0
    outer loop
      vertex 39.25 -2.59808 6
      vertex 39.0833 -2.49441 0
      vertex 39.25 -2.59808 0
    endloop
  endfacet
  facet normal 0.471461 -0.881887 0
    outer loop
      vertex 42.0769 -2.69062 0
      vertex 42.25 -2.59808 6
      vertex 42.0769 -2.69062 6
    endloop
  endfacet
  facet normal 0.471461 -0.881887 0
    outer loop
      vertex 42.25 -2.59808 6
      vertex 42.0769 -2.69062 0
      vertex 42.25 -2.59808 0
    endloop
  endfacet
  facet normal 0.772876 0.634557 0
    outer loop
      vertex 43.1301 1.82628 6
      vertex 43.0055 1.97804 0
      vertex 43.0055 1.97804 6
    endloop
  endfacet
  facet normal 0.772876 0.634557 0
    outer loop
      vertex 43.0055 1.97804 0
      vertex 43.1301 1.82628 6
      vertex 43.1301 1.82628 0
    endloop
  endfacet
  facet normal 0.683551 0.729902 -0
    outer loop
      vertex 42.8713 2.12132 0
      vertex 42.728 2.25552 6
      vertex 42.8713 2.12132 6
    endloop
  endfacet
  facet normal 0.683551 0.729902 0
    outer loop
      vertex 42.728 2.25552 6
      vertex 42.8713 2.12132 0
      vertex 42.728 2.25552 0
    endloop
  endfacet
  facet normal 0.582418 -0.812889 0
    outer loop
      vertex 42.4167 -2.49441 0
      vertex 42.5763 -2.38006 6
      vertex 42.4167 -2.49441 6
    endloop
  endfacet
  facet normal 0.582418 -0.812889 0
    outer loop
      vertex 42.5763 -2.38006 6
      vertex 42.4167 -2.49441 0
      vertex 42.5763 -2.38006 0
    endloop
  endfacet
  facet normal 0.882006 -0.471239 0
    outer loop
      vertex 43.3481 -1.5 6
      vertex 43.4406 -1.32687 0
      vertex 43.4406 -1.32687 6
    endloop
  endfacet
  facet normal 0.882006 -0.471239 0
    outer loop
      vertex 43.4406 -1.32687 0
      vertex 43.3481 -1.5 6
      vertex 43.3481 -1.5 0
    endloop
  endfacet
  facet normal -0.882006 0.471239 0
    outer loop
      vertex 38.0594 1.32687 0
      vertex 38.1519 1.5 6
      vertex 38.1519 1.5 0
    endloop
  endfacet
  facet normal -0.882006 0.471239 0
    outer loop
      vertex 38.1519 1.5 6
      vertex 38.0594 1.32687 0
      vertex 38.0594 1.32687 6
    endloop
  endfacet
  facet normal 0.812958 0.582322 0
    outer loop
      vertex 43.2444 1.66671 6
      vertex 43.1301 1.82628 0
      vertex 43.1301 1.82628 6
    endloop
  endfacet
  facet normal 0.812958 0.582322 0
    outer loop
      vertex 43.1301 1.82628 0
      vertex 43.2444 1.66671 6
      vertex 43.2444 1.66671 0
    endloop
  endfacet
  facet normal -0.995156 -0.0983089 0
    outer loop
      vertex 37.7757 -0.391578 0
      vertex 37.7564 -0.196209 6
      vertex 37.7564 -0.196209 0
    endloop
  endfacet
  facet normal -0.995156 -0.0983089 0
    outer loop
      vertex 37.7564 -0.196209 6
      vertex 37.7757 -0.391578 0
      vertex 37.7757 -0.391578 6
    endloop
  endfacet
  facet normal -0.772876 0.634557 0
    outer loop
      vertex 38.3699 1.82628 0
      vertex 38.4945 1.97804 6
      vertex 38.4945 1.97804 0
    endloop
  endfacet
  facet normal -0.772876 0.634557 0
    outer loop
      vertex 38.4945 1.97804 6
      vertex 38.3699 1.82628 0
      vertex 38.3699 1.82628 6
    endloop
  endfacet
  facet normal -0.528102 0.849181 0
    outer loop
      vertex 39.25 2.59808 0
      vertex 39.0833 2.49441 6
      vertex 39.25 2.59808 6
    endloop
  endfacet
  facet normal -0.528102 0.849181 0
    outer loop
      vertex 39.0833 2.49441 6
      vertex 39.25 2.59808 0
      vertex 39.0833 2.49441 0
    endloop
  endfacet
  facet normal 0.634524 -0.772903 0
    outer loop
      vertex 42.5763 -2.38006 0
      vertex 42.728 -2.25552 6
      vertex 42.5763 -2.38006 6
    endloop
  endfacet
  facet normal 0.634524 -0.772903 0
    outer loop
      vertex 42.728 -2.25552 6
      vertex 42.5763 -2.38006 0
      vertex 42.728 -2.25552 0
    endloop
  endfacet
  facet normal 0.412652 0.910889 -0
    outer loop
      vertex 42.0769 2.69062 0
      vertex 41.9081 2.76709 6
      vertex 42.0769 2.69062 6
    endloop
  endfacet
  facet normal 0.412652 0.910889 0
    outer loop
      vertex 41.9081 2.76709 6
      vertex 42.0769 2.69062 0
      vertex 41.9081 2.76709 0
    endloop
  endfacet
  facet normal 0.910906 -0.412613 0
    outer loop
      vertex 43.4406 -1.32687 6
      vertex 43.5216 -1.14805 0
      vertex 43.5216 -1.14805 6
    endloop
  endfacet
  facet normal 0.910906 -0.412613 0
    outer loop
      vertex 43.5216 -1.14805 0
      vertex 43.4406 -1.32687 6
      vertex 43.4406 -1.32687 0
    endloop
  endfacet
  facet normal -0.729855 -0.683602 0
    outer loop
      vertex 38.6287 -2.12132 0
      vertex 38.4945 -1.97804 6
      vertex 38.4945 -1.97804 0
    endloop
  endfacet
  facet normal -0.729855 -0.683602 0
    outer loop
      vertex 38.4945 -1.97804 6
      vertex 38.6287 -2.12132 0
      vertex 38.6287 -2.12132 6
    endloop
  endfacet
  facet normal -0.471323 -0.881961 0
    outer loop
      vertex 39.25 -2.59808 0
      vertex 39.4058 -2.68134 6
      vertex 39.25 -2.59808 6
    endloop
  endfacet
  facet normal -0.471323 -0.881961 -0
    outer loop
      vertex 39.4058 -2.68134 6
      vertex 39.25 -2.59808 0
      vertex 39.4058 -2.68134 0
    endloop
  endfacet
  facet normal -0.471323 0.881961 0
    outer loop
      vertex 39.4058 2.68134 0
      vertex 39.25 2.59808 6
      vertex 39.4058 2.68134 6
    endloop
  endfacet
  facet normal -0.471323 0.881961 0
    outer loop
      vertex 39.25 2.59808 6
      vertex 39.4058 2.68134 0
      vertex 39.25 2.59808 0
    endloop
  endfacet
  facet normal -0.935825 0.352465 0
    outer loop
      vertex 37.9092 0.964318 0
      vertex 37.9784 1.14805 6
      vertex 37.9784 1.14805 0
    endloop
  endfacet
  facet normal -0.935825 0.352465 0
    outer loop
      vertex 37.9784 1.14805 6
      vertex 37.9092 0.964318 0
      vertex 37.9092 0.964318 6
    endloop
  endfacet
  facet normal -0.973853 0.227181 0
    outer loop
      vertex 37.8076 0.585271 0
      vertex 37.8522 0.776457 6
      vertex 37.8522 0.776457 0
    endloop
  endfacet
  facet normal -0.973853 0.227181 0
    outer loop
      vertex 37.8522 0.776457 6
      vertex 37.8076 0.585271 0
      vertex 37.8076 0.585271 6
    endloop
  endfacet
  facet normal -0.812958 0.582322 0
    outer loop
      vertex 38.2556 1.66671 0
      vertex 38.3699 1.82628 6
      vertex 38.3699 1.82628 0
    endloop
  endfacet
  facet normal -0.812958 0.582322 0
    outer loop
      vertex 38.3699 1.82628 6
      vertex 38.2556 1.66671 0
      vertex 38.2556 1.66671 6
    endloop
  endfacet
  facet normal -0.634524 -0.772903 0
    outer loop
      vertex 38.772 -2.25552 0
      vertex 38.9237 -2.38006 6
      vertex 38.772 -2.25552 6
    endloop
  endfacet
  facet normal -0.634524 -0.772903 -0
    outer loop
      vertex 38.9237 -2.38006 6
      vertex 38.772 -2.25552 0
      vertex 38.9237 -2.38006 0
    endloop
  endfacet
  facet normal -0.582418 -0.812889 0
    outer loop
      vertex 38.9237 -2.38006 0
      vertex 39.0833 -2.49441 6
      vertex 38.9237 -2.38006 6
    endloop
  endfacet
  facet normal -0.582418 -0.812889 -0
    outer loop
      vertex 39.0833 -2.49441 6
      vertex 38.9237 -2.38006 0
      vertex 39.0833 -2.49441 0
    endloop
  endfacet
  facet normal -0.849127 -0.528189 0
    outer loop
      vertex 38.2556 -1.66671 0
      vertex 38.1519 -1.5 6
      vertex 38.1519 -1.5 0
    endloop
  endfacet
  facet normal -0.849127 -0.528189 0
    outer loop
      vertex 38.1519 -1.5 6
      vertex 38.2556 -1.66671 0
      vertex 38.2556 -1.66671 6
    endloop
  endfacet
endsolid OpenSCAD_Model
